<svg width="32" height="31" viewBox="0 0 32 31" fill="none" xmlns="http://www.w3.org/2000/svg">
<path d="M15.9996 5.31388C21.6079 5.31388 26.1711 9.87709 26.1711 15.4854C26.1711 21.0938 21.6079 25.657 15.9996 25.657C10.3913 25.657 5.82804 21.0938 5.82804 15.4854C5.82804 9.87709 10.3913 5.31388 15.9996 5.31388ZM15.9996 2.771C8.97741 2.771 3.28516 8.46325 3.28516 15.4854C3.28516 22.5076 8.97741 28.1999 15.9996 28.1999C23.0218 28.1999 28.714 22.5076 28.714 15.4854C28.714 8.46325 23.0218 2.771 15.9996 2.771ZM17.271 19.2998H14.7281V21.8426H17.271V19.2998ZM14.7281 16.7569H17.271L17.9068 9.12821H14.0924L14.7281 16.7569Z" fill="black"/>
</svg>
