<svg width="27" height="27" viewBox="0 0 27 27" fill="none" xmlns="http://www.w3.org/2000/svg">
<g clip-path="url(#clip0_1258_653)">
<path d="M20.4283 0H6.25356C2.79982 0 0 2.79982 0 6.25356V20.4283C0 23.8821 2.79982 26.6819 6.25356 26.6819H20.4283C23.8821 26.6819 26.6819 23.8821 26.6819 20.4283V6.25356C26.6819 2.79982 23.8821 0 20.4283 0Z" fill="#3D5A98"/>
<path d="M17.4342 26.8727V17.3194H20.6402L21.1196 13.5964H17.4342V11.2201C17.4342 10.1424 17.7343 9.40653 19.279 9.40653H21.2509V6.07129C20.296 5.97196 19.3364 5.92464 18.3764 5.92955C15.5373 5.92955 13.582 7.6597 13.582 10.8511V13.5964H10.376V17.3194H13.582V26.8727H17.4342Z" fill="white"/>
</g>
<defs>
<clipPath id="clip0_1258_653">
<rect width="26.6819" height="26.6819" fill="white"/>
</clipPath>
</defs>
</svg>
