<svg width="28" height="27" viewBox="0 0 28 27" fill="none" xmlns="http://www.w3.org/2000/svg">
<g clip-path="url(#clip0_1258_661)">
<path d="M20.9928 0H6.81802C3.36427 0 0.564453 2.79982 0.564453 6.25356V20.4283C0.564453 23.8821 3.36427 26.6819 6.81802 26.6819H20.9928C24.4465 26.6819 27.2463 23.8821 27.2463 20.4283V6.25356C27.2463 2.79982 24.4465 0 20.9928 0Z" fill="url(#paint0_radial_1258_661)"/>
<path d="M20.9928 0H6.81802C3.36427 0 0.564453 2.79982 0.564453 6.25356V20.4283C0.564453 23.8821 3.36427 26.6819 6.81802 26.6819H20.9928C24.4465 26.6819 27.2463 23.8821 27.2463 20.4283V6.25356C27.2463 2.79982 24.4465 0 20.9928 0Z" fill="url(#paint1_radial_1258_661)"/>
<path d="M13.906 2.91846C11.0754 2.91846 10.7201 2.93086 9.60841 2.98141C8.49882 3.03227 7.74141 3.20789 7.07874 3.46564C6.39314 3.73184 5.81167 4.08798 5.23238 4.66747C4.65257 5.24687 4.29643 5.82834 4.0294 6.51363C3.77092 7.17651 3.59509 7.93423 3.54517 9.0433C3.49545 10.1551 3.48242 10.5105 3.48242 13.3412C3.48242 16.1718 3.49493 16.526 3.54537 17.6377C3.59645 18.7473 3.77207 19.5047 4.02961 20.1673C4.29601 20.8529 4.65215 21.4344 5.23165 22.0137C5.81083 22.5935 6.39231 22.9505 7.07739 23.2167C7.74058 23.4744 8.49809 23.6501 9.60747 23.7009C10.7193 23.7515 11.0742 23.7639 13.9047 23.7639C16.7356 23.7639 17.0898 23.7515 18.2014 23.7009C19.311 23.6501 20.0693 23.4744 20.7325 23.2167C21.4177 22.9505 21.9984 22.5935 22.5775 22.0137C23.1573 21.4344 23.5133 20.8529 23.7804 20.1677C24.0366 19.5047 24.2126 18.7471 24.2647 17.6379C24.3146 16.5262 24.3276 16.1718 24.3276 13.3412C24.3276 10.5105 24.3146 10.1553 24.2647 9.04351C24.2126 7.93392 24.0366 7.17661 23.7804 6.51394C23.5133 5.82834 23.1573 5.24687 22.5775 4.66747C21.9978 4.08777 21.418 3.73163 20.7318 3.46575C20.0674 3.20789 19.3096 3.03217 18.2 2.98141C17.0882 2.93086 16.7342 2.91846 13.9027 2.91846H13.906ZM12.971 4.79671C13.2485 4.7963 13.5582 4.79671 13.906 4.79671C16.6889 4.79671 17.0187 4.80672 18.1176 4.85664C19.1338 4.90313 19.6854 5.07291 20.0528 5.2156C20.5392 5.40446 20.886 5.63031 21.2506 5.99521C21.6154 6.36 21.8411 6.70739 22.0305 7.19381C22.1732 7.56069 22.3432 8.11225 22.3894 9.12845C22.4394 10.2272 22.4502 10.5572 22.4502 13.3388C22.4502 16.1204 22.4394 16.4504 22.3894 17.5491C22.343 18.5653 22.1732 19.1169 22.0305 19.4838C21.8416 19.9703 21.6154 20.3166 21.2506 20.6812C20.8858 21.046 20.5394 21.2717 20.0528 21.4607C19.6858 21.604 19.1338 21.7734 18.1176 21.8199C17.0189 21.8698 16.6889 21.8806 13.906 21.8806C11.1229 21.8806 10.793 21.8698 9.6944 21.8199C8.67819 21.773 8.12663 21.6032 7.75892 21.4605C7.2726 21.2715 6.92511 21.0458 6.56032 20.681C6.19553 20.3162 5.96978 19.9696 5.7804 19.483C5.63771 19.116 5.46772 18.5645 5.42144 17.5483C5.37152 16.4495 5.36151 16.1195 5.36151 13.3362C5.36151 10.5528 5.37152 10.2246 5.42144 9.12585C5.46793 8.10964 5.63771 7.55808 5.7804 7.19068C5.96936 6.70426 6.19553 6.35687 6.56043 5.99208C6.92532 5.62729 7.2726 5.40143 7.75903 5.21216C8.12642 5.06885 8.67819 4.89948 9.6944 4.85279C10.6559 4.80933 11.0285 4.7963 12.971 4.79411V4.79671ZM19.4696 6.52728C18.7791 6.52728 18.2188 7.08698 18.2188 7.77758C18.2188 8.46808 18.7791 9.02829 19.4696 9.02829C20.16 9.02829 20.7203 8.46808 20.7203 7.77758C20.7203 7.08708 20.16 6.52687 19.4696 6.52687V6.52728ZM13.906 7.98864C10.9501 7.98864 8.55354 10.3852 8.55354 13.3412C8.55354 16.2971 10.9501 18.6925 13.906 18.6925C16.8619 18.6925 19.2577 16.2971 19.2577 13.3412C19.2577 10.3853 16.8617 7.98864 13.9058 7.98864H13.906ZM13.906 9.8669C15.8247 9.8669 17.3802 11.4223 17.3802 13.3412C17.3802 15.2599 15.8247 16.8154 13.906 16.8154C11.9873 16.8154 10.4318 15.2599 10.4318 13.3412C10.4318 11.4223 11.9872 9.8669 13.906 9.8669Z" fill="white"/>
</g>
<defs>
<radialGradient id="paint0_radial_1258_661" cx="0" cy="0" r="1" gradientUnits="userSpaceOnUse" gradientTransform="translate(7.65182 28.7369) rotate(-90) scale(26.4437 24.5947)">
<stop stop-color="#FFDD55"/>
<stop offset="0.1" stop-color="#FFDD55"/>
<stop offset="0.5" stop-color="#FF543E"/>
<stop offset="1" stop-color="#C837AB"/>
</radialGradient>
<radialGradient id="paint1_radial_1258_661" cx="0" cy="0" r="1" gradientUnits="userSpaceOnUse" gradientTransform="translate(-3.90486 1.92203) rotate(78.681) scale(11.8205 48.7244)">
<stop stop-color="#3771C8"/>
<stop offset="0.128" stop-color="#3771C8"/>
<stop offset="1" stop-color="#6600FF" stop-opacity="0"/>
</radialGradient>
<clipPath id="clip0_1258_661">
<rect width="26.6819" height="26.6819" fill="white" transform="translate(0.563477)"/>
</clipPath>
</defs>
</svg>
