<svg width="27" height="27" viewBox="0 0 27 27" fill="none" xmlns="http://www.w3.org/2000/svg">
<g clip-path="url(#clip0_1258_656)">
<path d="M20.7096 0H6.53481C3.08107 0 0.28125 2.79982 0.28125 6.25356V20.4283C0.28125 23.8821 3.08107 26.6819 6.53481 26.6819H20.7096C24.1633 26.6819 26.9631 23.8821 26.9631 20.4283V6.25356C26.9631 2.79982 24.1633 0 20.7096 0Z" fill="white"/>
<path d="M20.7096 0H6.53481C3.08107 0 0.28125 2.79982 0.28125 6.25356V20.4283C0.28125 23.8821 3.08107 26.6819 6.53481 26.6819H20.7096C24.1633 26.6819 26.9631 23.8821 26.9631 20.4283V6.25356C26.9631 2.79982 24.1633 0 20.7096 0Z" fill="#0A66C2"/>
<path d="M19.5337 22.6883H22.5844C22.695 22.6883 22.801 22.6444 22.8792 22.5662C22.9573 22.4881 23.0013 22.3821 23.0013 22.2715L23.0029 15.826C23.0029 12.4571 22.2769 9.86757 18.34 9.86757C16.8434 9.81191 15.4321 10.5834 14.6705 11.8716C14.6668 11.8779 14.6611 11.8827 14.6544 11.8855C14.6476 11.8882 14.6402 11.8887 14.6332 11.8868C14.6261 11.8849 14.6199 11.8807 14.6155 11.875C14.611 11.8692 14.6086 11.8621 14.6085 11.8548V10.5955C14.6085 10.4849 14.5646 10.3789 14.4864 10.3007C14.4082 10.2225 14.3022 10.1786 14.1916 10.1786H11.2965C11.1859 10.1786 11.0799 10.2225 11.0017 10.3007C10.9235 10.3789 10.8796 10.4849 10.8796 10.5955V22.2709C10.8796 22.3815 10.9235 22.4875 11.0017 22.5657C11.0799 22.6439 11.1859 22.6878 11.2965 22.6878H14.347C14.4576 22.6878 14.5636 22.6439 14.6418 22.5657C14.72 22.4875 14.7639 22.3815 14.7639 22.2709V16.4996C14.7639 14.8677 15.0735 13.2873 17.0966 13.2873C19.091 13.2873 19.1168 15.1546 19.1168 16.6053V22.2714C19.1168 22.382 19.1607 22.488 19.2389 22.5662C19.3171 22.6444 19.4231 22.6883 19.5337 22.6883ZM4.24219 6.21465C4.24219 7.45119 5.26016 8.46864 6.49681 8.46864C7.73313 8.46854 8.75048 7.45046 8.75048 6.21413C8.75028 4.9778 7.73282 3.96045 6.49639 3.96045C5.25964 3.96045 4.24219 4.97811 4.24219 6.21465ZM4.9675 22.6883H8.02205C8.13262 22.6883 8.23866 22.6444 8.31685 22.5662C8.39503 22.488 8.43895 22.382 8.43895 22.2714V10.5955C8.43895 10.4849 8.39503 10.3789 8.31685 10.3007C8.23866 10.2225 8.13262 10.1786 8.02205 10.1786H4.9675C4.85693 10.1786 4.75089 10.2225 4.6727 10.3007C4.59452 10.3789 4.55059 10.4849 4.55059 10.5955V22.2714C4.55059 22.382 4.59452 22.488 4.6727 22.5662C4.75089 22.6444 4.85693 22.6883 4.9675 22.6883Z" fill="white"/>
</g>
<defs>
<clipPath id="clip0_1258_656">
<rect width="26.6819" height="26.6819" fill="white" transform="translate(0.28125)"/>
</clipPath>
</defs>
</svg>
