<svg width="17" height="21" viewBox="0 0 17 21" fill="none" xmlns="http://www.w3.org/2000/svg">
<path fill-rule="evenodd" clip-rule="evenodd" d="M7.76591 20.134C7.76591 20.134 0.503906 14.018 0.503906 8C0.503906 5.87827 1.34676 3.84344 2.84705 2.34315C4.34734 0.842855 6.38217 0 8.50391 0C10.6256 0 12.6605 0.842855 14.1608 2.34315C15.6611 3.84344 16.5039 5.87827 16.5039 8C16.5039 14.018 9.24191 20.134 9.24191 20.134C8.83791 20.506 8.17291 20.502 7.76591 20.134ZM8.50391 11.5C8.96353 11.5 9.41866 11.4095 9.8433 11.2336C10.2679 11.0577 10.6538 10.7999 10.9788 10.4749C11.3038 10.1499 11.5616 9.76403 11.7375 9.33939C11.9134 8.91475 12.0039 8.45963 12.0039 8C12.0039 7.54037 11.9134 7.08525 11.7375 6.66061C11.5616 6.23597 11.3038 5.85013 10.9788 5.52513C10.6538 5.20012 10.2679 4.94231 9.8433 4.76642C9.41866 4.59053 8.96353 4.5 8.50391 4.5C7.57565 4.5 6.68541 4.86875 6.02903 5.52513C5.37266 6.1815 5.00391 7.07174 5.00391 8C5.00391 8.92826 5.37266 9.8185 6.02903 10.4749C6.68541 11.1313 7.57565 11.5 8.50391 11.5Z" fill="#1E4C30"/>
</svg>
