<svg width="183" height="108" viewBox="0 0 183 108" fill="none" xmlns="http://www.w3.org/2000/svg">
<rect width="183" height="108" fill="white"/>
<g clip-path="url(#clip0_3597_1079)">
<path d="M44.2983 16.1241C45.1602 15.6159 46.2069 15.7896 47.1118 16.0716C47.687 16.6546 48.4883 17.0083 48.9153 17.7316C49.4601 18.5712 49.5223 19.6259 49.3598 20.5882C49.1272 21.8722 47.8989 22.6911 46.7327 23.0528C44.7109 23.51 42.5729 21.8977 42.2495 19.8904C42.1858 19.406 42.2272 18.9169 42.2718 18.4326C42.6749 17.4831 43.4046 16.6451 44.2983 16.1241Z" fill="#704D93"/>
<path d="M136.786 27.359C138.769 27.2873 140.804 27.3781 142.695 28.0313C143.35 28.5777 144.202 28.7944 144.881 29.3026C146.289 30.2936 147.528 31.7449 147.747 33.5086C147.884 34.5473 148.177 35.5669 148.18 36.6216C148.183 39.8079 148.137 42.9942 148.172 46.1805C148.172 46.7334 148.257 47.2798 148.365 47.8199C148.382 47.9139 148.419 48.1035 148.437 48.1975C149.644 48.1545 150.852 48.0509 152.063 48.0891C152.19 49.9452 152.209 51.8076 152.15 53.6668C149.096 53.7226 146.042 53.764 142.991 53.8882C142.15 53.9711 142.414 52.4926 141.557 52.593C140.722 52.6806 139.824 52.9164 139.321 53.6413C138.497 53.8898 137.624 53.9105 136.771 53.9743C135.545 53.9918 134.304 54.0507 133.093 53.807C131.79 53.5824 130.595 52.9244 129.605 52.0625C128.81 51.3742 127.95 50.7083 127.447 49.7636C126.945 48.8395 126.588 47.8215 126.44 46.7796L126.426 46.6243C126.416 46.4235 126.398 46.2899 126.396 46.1024C126.395 45.9333 126.396 46.1024 126.384 45.7176C126.347 45.294 126.523 44.8041 126.561 44.4297C127.056 41.5827 129.099 39.0751 131.769 37.979C133.094 37.4182 134.543 37.2668 135.961 37.1155C138.041 36.9418 140.09 37.5169 142.167 37.4516C142.233 36.3746 142.105 35.2993 141.944 34.235C141.882 33.9451 141.86 33.5898 141.554 33.4464C140.364 32.747 138.952 32.4523 137.579 32.5797C135.398 32.661 133.439 33.667 131.312 34.027C131.126 33.471 130.857 32.8524 130.733 32.2788C130.527 31.6545 130.339 31.1118 130.13 30.511C129.995 30.1268 129.781 29.8363 129.734 29.454C130.622 28.9633 131.629 28.7737 132.575 28.4343C133.944 27.9596 135.315 27.3876 136.786 27.359ZM135.688 42.5609C134.635 42.8206 133.781 43.5789 133.134 44.4201C132.661 45.0367 132.385 45.9209 132.766 46.6505C133.219 47.5108 134.026 48.1927 134.946 48.5081C136.894 48.8841 138.825 48.1258 140.517 47.2209C141.431 46.6617 142.352 45.7408 142.215 44.5746C142.268 43.8928 141.549 43.5964 141.071 43.2937C139.472 42.3028 137.488 42.3331 135.688 42.5609Z" fill="#704D93"/>
<path d="M47.1106 16.0713C48.1573 16.4441 49.0957 17.2184 49.4988 18.273C49.9767 19.3803 49.819 20.7042 49.1913 21.719C48.2195 22.9967 46.4431 23.728 44.877 23.2182C42.9955 22.608 41.4756 20.3951 42.2706 18.4323C42.226 18.9167 42.1846 19.4058 42.2483 19.8901C42.5717 21.8975 44.7097 23.5097 46.7314 23.0525C47.8976 22.6909 49.126 21.872 49.3586 20.5879C49.5211 19.6256 49.4589 18.571 48.9141 17.7314C48.4871 17.0081 47.6858 16.6544 47.1106 16.0713Z" fill="#704D93"/>
<path d="M142.695 28.0312C144.593 28.5761 146.259 29.8347 147.315 31.498C148.192 32.9318 148.244 34.6604 148.31 36.2886C148.367 40.1329 148.192 43.9772 148.365 47.8199C148.257 47.2798 148.173 46.7333 148.173 46.1805C148.138 42.9942 148.184 39.8079 148.181 36.6216C148.177 35.5669 147.884 34.5473 147.747 33.5085C147.529 31.7449 146.289 30.2935 144.881 29.3026C144.202 28.7944 143.35 28.5777 142.695 28.0312Z" fill="#704D93"/>
<path d="M50.1018 56.5424C52.1044 56.4579 54.1644 56.4213 56.0905 57.0554C57.048 57.3517 57.8111 58.1817 58.8642 58.1754C59.8265 58.3283 59.8217 56.7941 60.7505 56.8196C63.2263 56.5933 65.718 56.6889 68.1985 56.5264C67.7875 57.3676 66.8236 57.6496 66.18 58.2678C65.0281 59.2125 64.2316 60.5237 63.7711 61.9288C63.6803 62.2395 63.6453 62.5645 63.6612 62.8879C63.846 65.9723 63.811 69.063 63.8094 72.1521C63.7775 74.9625 63.854 77.784 63.5274 80.5831C63.3458 82.7482 63.0781 84.9484 62.2353 86.9701C61.563 88.5808 60.1451 89.7263 58.6794 90.5945C55.9662 92.1495 52.6573 92.5525 49.6143 91.8993C47.2772 91.4437 45.0181 90.2998 43.46 88.4693C42.7653 87.5914 42.1201 86.6467 41.7489 85.5825C43.6926 86.4045 45.7621 86.9271 47.865 87.1039C49.6637 87.2314 51.4544 86.8841 53.1639 86.3567C54.4177 85.933 55.6763 85.3355 56.5111 84.2713C57.929 82.6064 58.3401 80.3776 58.4946 78.2603C57.5451 78.6474 56.6688 79.1971 55.6954 79.5269C54.6152 79.9299 53.4857 80.2103 52.3323 80.2836C50.8267 80.3888 49.3228 80.0638 47.9017 79.589C46.5395 79.1079 45.2108 78.4483 44.1466 77.4558C42.2284 75.6475 40.8504 73.2052 40.562 70.5638C40.4887 69.2271 40.468 67.8872 40.5556 66.5506C40.8902 63.5188 42.4658 60.6623 44.8062 58.717C46.3372 57.5461 48.1486 56.6443 50.1018 56.5424ZM50.6499 61.4015C49.8007 61.6054 48.9898 61.983 48.3318 62.5645C46.8374 63.7817 46.0552 65.6568 45.7079 67.5113C45.4976 68.5627 45.7716 69.6238 46.0664 70.6291C46.4567 71.9195 47.1656 73.159 48.2777 73.9572C49.1252 74.5451 50.062 75.0294 51.0721 75.2588C51.9133 75.4356 52.7895 75.3098 53.5813 74.9911C55.842 74.2344 57.6725 72.286 58.2954 69.987C58.5966 68.3429 58.2588 66.6382 57.6088 65.1167C56.8807 63.6479 55.7082 62.3271 54.1516 61.7233C53.0603 61.2374 51.8097 61.094 50.6499 61.4015Z" fill="#2D2F37"/>
<path d="M136.959 56.8595C137.596 56.5695 138.303 56.5249 138.987 56.4214C140.04 56.2621 141.111 56.2159 142.172 56.3274C143.304 56.4341 144.501 56.5632 145.455 57.245C146.94 58.2758 148.17 59.8132 148.524 61.6167C148.678 63.3198 148.594 65.034 148.571 66.7419C148.555 69.0743 148.5 71.4082 148.536 73.7422C148.562 74.4336 148.484 75.1569 148.788 75.8038C149.54 77.6072 151.103 78.8738 152.196 80.451C150.238 80.4191 148.28 80.4382 146.322 80.4303C145.947 80.4096 145.505 80.3905 145.25 80.0766C144.788 79.5811 144.44 78.9917 143.98 78.4962C143.674 78.1489 143.304 77.8334 143.145 77.3874C142.924 76.782 142.991 76.1272 142.979 75.4963C142.983 72.4135 142.986 69.3323 142.984 66.2512C142.983 64.9687 143.006 63.6782 142.803 62.4085C142.744 62.1249 142.651 61.7553 142.341 61.6597C140.811 61.3713 139.24 61.733 137.851 62.3862C136.89 62.8052 135.912 63.2656 135.152 64.0016C134.805 64.3378 134.856 64.8556 134.821 65.2969C134.759 67.3154 134.791 69.3355 134.794 71.3541C134.829 72.6875 134.741 74.0306 134.929 75.3545C135.2 77.0209 136.223 78.4643 137.496 79.5286C137.912 79.8631 138.319 80.2088 138.683 80.5992C137.411 80.6199 136.146 80.459 134.877 80.4462C133.647 80.4143 132.347 80.5338 131.201 79.9954C130.115 79.3995 129.543 78.1441 129.455 76.9476C129.339 72.9552 129.477 68.9611 129.442 64.9671C129.42 63.5683 129.575 62.1106 129.031 60.7819C128.544 59.7049 127.728 58.7856 126.742 58.1356C126.235 57.758 125.573 57.4585 125.418 56.7814C127.981 56.6317 130.564 56.8691 133.126 56.5998C133.64 56.5664 134.168 56.5839 134.669 56.7145C134.955 56.9965 134.826 57.4442 134.892 57.8042C135.182 57.8074 135.506 57.9174 135.778 57.7692C136.175 57.4713 136.5 57.0714 136.959 56.8595Z" fill="#2D2F37"/>
<path d="M75.0406 56.6415C76.809 56.4073 78.6045 56.4854 80.3824 56.5555C82.1206 56.6559 83.6771 57.5432 85.0392 58.5645C87.5787 60.6021 89.1209 63.6944 89.5989 66.8807C89.7789 69.4266 89.3296 72.0585 88.1172 74.3192C86.908 76.5369 85.001 78.3483 82.7419 79.4731C80.811 80.5118 78.5312 80.7046 76.3836 80.4369C73.175 80.0434 70.2006 78.1492 68.4656 75.4233C67.0796 73.3123 66.3547 70.8206 66.1523 68.3178C66.1603 66.7453 66.6319 65.2127 67.1863 63.7534C68.0705 61.4242 69.5649 59.2495 71.7109 57.9208C72.7225 57.2804 73.8505 56.8152 75.0406 56.6415ZM76.7357 61.3589C74.7427 61.8814 73.0284 63.4172 72.3019 65.3497C71.4687 67.5754 71.6631 70.1069 72.5999 72.2688C73.3295 73.7504 74.8143 74.743 76.3613 75.2162C78.0277 75.6352 79.8216 75.1843 81.2571 74.2873C82.6607 73.3219 83.7647 71.8036 83.9654 70.083C84.308 68.1234 84.0563 66.0459 83.1243 64.2807C82.4201 63.2006 81.4164 62.2829 80.2199 61.7826C79.1111 61.3859 77.9099 61.1581 76.7357 61.3589Z" fill="#2D2F37"/>
<path d="M88.6711 56.6858C92.055 56.7623 95.4404 56.4946 98.8227 56.587C98.6921 56.9375 98.5216 57.3183 98.1313 57.4426C97.1929 57.7899 96.3214 58.3156 95.6236 59.0389C95.4659 59.2269 95.3082 59.4611 95.356 59.7208C95.4739 60.6177 95.8291 61.4573 96.1239 62.3049C97.22 65.1758 98.1695 68.112 99.5619 70.8601C100.104 70.113 100.304 69.1985 100.617 68.3461C101.216 66.6431 101.85 64.9543 102.417 63.2401C103.051 61.4494 103.573 59.5901 104.587 57.9667C104.924 57.4123 105.42 56.8738 106.1 56.7973C107.709 56.6014 109.334 56.7527 110.95 56.7017C111.644 56.7304 112.387 56.587 113.043 56.8786C113.571 56.8515 114.09 56.7225 114.62 56.7161C117.466 56.7161 120.313 56.6842 123.158 56.7448C123.282 60.1239 123.193 63.5061 123.204 66.8884C123.196 69.2288 123.198 71.5707 123.188 73.911C123.185 75.1776 123.203 76.4489 123.402 77.7028C124.063 78.1966 124.853 78.4754 125.534 78.9422C126.12 79.3469 126.827 79.6958 127.06 80.4287C124.614 80.4366 122.169 80.4398 119.723 80.4064C119.201 80.3649 118.597 80.4366 118.165 80.0813C117.619 79.5381 117.589 78.7144 117.502 77.9959C117.402 73.1256 117.461 68.2537 117.487 63.3819C117.488 62.0277 117.434 60.5683 116.663 59.4022C115.787 58.1436 114.407 57.2307 112.887 56.9805C112.32 57.0522 111.872 57.4473 111.444 57.7931C110.881 58.2949 110.346 58.8302 109.844 59.3942C108.267 61.4318 107.636 63.9745 106.726 66.3388C105.571 69.6111 104.329 72.85 103.169 76.1192C102.723 77.4797 102.119 78.7797 101.684 80.1435C100.822 80.443 99.8965 80.2279 99.0187 80.1244C98.4626 80.1037 97.8604 80.0081 97.4685 79.5731C96.9539 78.9773 96.7038 78.2126 96.366 77.5132C95.2875 74.9928 94.3268 72.4246 93.296 69.8867C91.9243 66.514 90.7071 63.0712 89.0041 59.845C88.5691 58.8828 87.935 58.0129 87.5957 57.0092C87.704 56.5361 88.319 56.732 88.6711 56.6858Z" fill="#2D2F37"/>
<path d="M33.7036 72.8055C34.8905 72.7083 36.2893 72.549 37.2914 73.328C38.0131 74.1501 38.2963 75.1658 38.5042 76.2801C38.4547 77.2764 38.0035 78.0342 37.4555 78.7591C37.1623 79.1797 36.7369 79.484 36.2638 79.6704C35.609 79.9237 34.9223 80.263 34.2038 80.0862C32.7572 79.6688 31.3807 78.6524 30.9028 77.1771C30.5539 75.9838 31.18 74.7826 31.8173 73.806C32.249 73.1942 32.993 72.9218 33.7036 72.8055Z" fill="#2D2F37"/>
<path d="M109.584 73.3358C110.634 73.0889 111.8 73.4441 112.539 74.2296C113.368 75.0771 114.011 76.186 114.056 77.3952C113.978 78.4164 113.393 79.3436 112.647 80.0207C111.752 80.8013 110.476 80.779 109.359 80.744C108.228 80.7249 107.455 79.753 106.952 78.8481C106.428 77.9878 106.385 76.9156 106.675 75.9677C106.954 74.5769 108.274 73.6512 109.584 73.3358Z" fill="#2D2F37"/>
<path d="M105.744 19.2905C106.877 18.0462 108.528 17.3723 110.156 17.0776C111.978 16.9517 113.798 17.3532 115.625 17.2002C115.522 17.5013 115.364 17.7929 115.055 17.9219C113.465 18.7567 111.974 19.8035 110.755 21.1306C110.099 21.814 109.656 22.6807 109.423 23.5952C108.719 25.9037 108.792 28.3412 108.748 30.7277C108.719 34.87 108.84 39.0106 108.819 43.1528C108.84 44.8527 108.786 46.5574 108.902 48.2557C110.339 48.2254 111.757 47.9323 113.194 47.9195C113.154 49.8775 113.317 51.8498 113.027 53.7935C112.028 53.9671 111.011 53.9082 110.005 53.9257C107.986 53.9448 105.967 53.8524 103.951 53.9193C103.649 53.9098 103.324 53.9544 103.057 53.7887C102.848 53.1196 102.875 52.4011 102.684 51.7272C101.728 52.0028 100.978 52.6751 100.242 53.3108C99.4649 53.8147 98.7083 54.0795 97.8528 54.2643C96.8985 54.4284 95.8223 54.5662 94.8488 54.4292C93.8674 54.2953 92.8877 54.1376 91.9254 53.9002C90.2191 53.494 88.7375 52.5046 87.3052 51.5344C85.5559 50.1691 84.1301 48.3767 83.2251 46.3471C82.513 44.6328 82.2326 42.7625 82.2852 40.9128C82.2406 39.0823 82.3712 37.2055 83.069 35.4929C84.1587 33.0075 85.9972 30.8361 88.3535 29.4644C90.1825 28.3906 92.2775 27.7963 94.3804 27.5924C96.2891 27.5366 98.1753 27.9795 99.9772 28.5722C101.013 28.9131 101.93 29.5361 102.979 29.8419C102.999 28.8621 102.996 27.884 102.993 26.9042C102.902 24.1368 103.984 21.403 105.744 19.2905ZM94.2657 33.3134C93.0836 33.5062 91.9158 33.9125 90.9583 34.6453C89.9339 35.3957 89.3811 36.5874 88.9223 37.7329C88.0923 39.8836 88.2675 42.3148 89.1007 44.4369C89.7507 45.8707 90.9201 47.0273 92.2695 47.8144C93.2541 48.4198 94.4075 48.9105 95.5849 48.7798C97.0585 48.4723 98.5561 48.0024 99.7335 47.0273C101.038 45.9631 102.037 44.5213 102.592 42.9329C103.054 41.6233 102.893 40.2086 102.623 38.8783C102.348 37.2438 101.196 35.9151 99.9454 34.9018C98.3777 33.6145 96.2731 33.0251 94.2657 33.3134Z" fill="#2B5B9F"/>
<path d="M68.2875 27.4382C70.126 27.1323 72.0442 27.2279 73.8206 27.8046C75.8598 28.4753 77.3988 30.2135 78.1731 32.1747C78.6271 33.3886 78.6303 34.7062 78.6479 35.9839C78.6797 40.099 78.5618 44.2173 78.7307 48.3293C79.4333 48.2735 80.1454 48.2576 80.8241 48.0473C81.2877 47.9023 81.7768 47.9087 82.2579 47.9103C82.5527 49.8173 82.2627 51.7482 82.3902 53.6648C79.0621 53.6648 75.7324 53.6552 72.409 53.8464C72.1669 47.6219 72.5126 41.3879 72.2083 35.1666C72.1016 34.4959 72.2163 33.7567 71.8897 33.1417C71.3432 32.9426 70.7474 33.0158 70.1802 33.0573C68.7766 33.2086 67.3587 33.5002 66.1033 34.1709C65.3211 34.6409 64.3508 34.9531 63.7901 35.6939C63.3758 37.6137 63.516 39.6004 63.4889 41.552C63.532 43.8222 63.3806 46.102 63.6164 48.3659C64.8511 48.248 66.0269 47.7717 67.2743 47.7621C67.3906 49.7376 67.2217 51.7179 67.2934 53.6966C66.5637 53.8209 65.8181 53.7763 65.0805 53.8002C62.4438 53.7986 59.804 53.8464 57.1689 53.7508C57.137 49.6325 57.1896 45.5126 57.2342 41.3927C57.2629 38.7464 57.1561 36.0986 57.2326 33.454C55.923 33.4826 54.6166 33.5719 53.3071 33.5989C53.186 31.7907 53.1127 29.9809 53.041 28.1711C56.2576 28.1424 59.4774 28.238 62.6924 28.1169C63.3711 27.9671 63.5383 28.8019 63.9223 29.1875C65.3275 28.4976 66.6832 27.5593 68.2875 27.4382Z" fill="#24A039"/>
<path d="M40.0188 28.1726C43.4791 28.1886 47.0086 28.1023 50.4673 28.1915C50.5419 28.838 50.4845 29.4836 50.5035 30.1467C50.5122 30.4493 50.4785 30.7495 50.5049 31.0435C50.6499 35.5012 50.5081 39.962 50.6563 44.4181C50.6929 45.7117 50.6706 47.0054 50.728 48.299C51.8958 48.1572 53.0444 47.8211 54.2329 47.8991C54.5818 49.8252 54.3715 51.7912 54.2361 53.7269C50.9494 53.7157 47.6595 53.8575 44.3729 53.7779C44.3251 47.034 44.333 40.2886 44.2358 33.5464C42.9008 33.5368 41.4371 33.5655 40.0938 33.4739C39.9714 32.6138 40.1462 31.6139 40.0857 30.7281C40.0586 29.8757 39.9789 29.025 40.0188 28.1726Z" fill="#CD328A"/>
<path d="M112.691 28.0889C116.059 28.1048 119.426 28.2068 122.794 28.1701C122.876 31.8376 122.816 35.5066 122.861 39.1741C122.857 42.2202 122.915 45.2679 122.861 48.3156C123.727 48.1659 124.576 47.8297 125.472 47.9109C125.711 47.8711 125.778 48.1547 125.84 48.3236C126.287 50.0442 126.337 51.8429 126.195 53.6065C123.122 53.7547 120.039 53.6415 116.963 53.6718C116.83 46.9327 117.023 40.1889 116.907 33.4498C115.532 33.5184 114.159 33.6219 112.789 33.7494C112.83 31.8631 112.822 29.972 112.691 28.0889Z" fill="#0A957A"/>
<path d="M94.4759 37.3646C95.7043 37.0507 96.9708 37.5685 97.9108 38.3476C98.4748 38.8271 98.838 39.5297 98.889 40.2705C99.1423 41.8716 98.1338 43.4982 96.7287 44.2199C94.7197 45.0659 92.0814 43.4393 91.9922 41.236C91.989 40.2912 92.4128 39.4198 92.8876 38.628C93.2444 38.0401 93.7988 37.5414 94.4759 37.3646Z" fill="#FCB408"/>
</g>
<defs>
<clipPath id="clip0_3597_1079">
<rect width="121.394" height="76.3999" fill="white" transform="translate(30.8027 15.7998)"/>
</clipPath>
</defs>
</svg>
