<svg width="183" height="108" viewBox="0 0 183 108" fill="none" xmlns="http://www.w3.org/2000/svg">
<rect width="183" height="108" fill="white"/>
<g clip-path="url(#clip0_3597_1119)">
<mask id="mask0_3597_1119" style="mask-type:luminance" maskUnits="userSpaceOnUse" x="14" y="13" width="155" height="89">
<path d="M14.9883 101.774H168.012V13.6146H14.9883V101.774Z" fill="white"/>
</mask>
<g mask="url(#mask0_3597_1119)">
<path fill-rule="evenodd" clip-rule="evenodd" d="M24.8035 54.6029C26.2106 54.6029 27.4836 55.1805 28.3977 56.1107L29.3461 55.1784C28.1909 54.0017 26.5824 53.2719 24.8035 53.2719C23.0203 53.2719 21.4086 54.006 20.2523 55.1869L21.2028 56.1182C22.1169 55.1827 23.3922 54.6029 24.8035 54.6029ZM24.8035 59.646L23.2775 58.1511C23.6654 57.7546 24.2055 57.5081 24.8035 57.5081C25.3993 57.5081 25.9394 57.7535 26.3263 58.1479L24.8035 59.646ZM22.6624 57.5477L21.8362 56.7387C22.5895 55.9682 23.6408 55.4902 24.8035 55.4902C25.963 55.4902 27.0121 55.966 27.7655 56.7333L26.9414 57.5435C26.397 56.9894 25.6404 56.6465 24.8035 56.6465C23.9644 56.6465 23.2057 56.9916 22.6624 57.5477ZM19.6447 54.5911L18.7734 53.737C20.3059 52.1724 22.4406 51.2015 24.8035 51.2015C27.16 51.2015 29.2915 52.1682 30.8228 53.7263L29.9527 54.5815C28.6432 53.2484 26.8192 52.4211 24.8035 52.4211C22.7824 52.4211 20.9553 53.2526 19.6447 54.5911Z" fill="#006DB7"/>
<path fill-rule="evenodd" clip-rule="evenodd" d="M19.1116 60.6432H30.3841C22.304 81.0921 20.9066 93.0632 29.0863 92.7632C11.1065 93.8112 13.4351 76.3233 19.1116 60.6432Z" fill="#006DB7"/>
<path fill-rule="evenodd" clip-rule="evenodd" d="M29.4863 29.3225C39.7611 12.5643 56.4196 10.8679 68.2901 16.9527C81.4572 23.7361 85.5476 39.398 82.2556 53.163C79.3622 65.7322 71.0827 77.204 60.4093 84.5854C53.9259 88.9748 46.5917 91.9196 38.6113 93.2163C44.5963 91.4203 49.9352 87.6781 54.1253 83.0894C56.7186 80.2957 59.013 77.1043 60.809 73.8123C66.8937 65.6325 69.6864 57.6521 69.8857 50.6694C70.2854 41.2926 66.195 32.0155 57.6166 27.7268C50.1345 23.9354 40.0601 24.1358 29.4863 29.3225Z" fill="#F16127"/>
<path fill-rule="evenodd" clip-rule="evenodd" d="M21.7045 48.1752C30.0836 31.6164 47.3411 30.4194 57.5152 37.6015C61.6056 40.4938 64.1989 44.5842 65.396 49.4719C66.7923 55.5566 65.7946 61.9414 63.5013 67.9265C61.5059 73.3125 58.2139 78.6996 54.1245 83.089C48.3388 89.4727 40.0594 94.3604 31.1809 94.2607C27.7892 94.2607 24.3975 93.4623 21.1055 91.5677C25.2955 93.5631 31.78 92.8644 35.7697 91.2687C42.3538 88.5746 47.6401 82.9893 50.9322 76.8039C55.0215 69.2231 58.2139 57.0526 51.7305 50.071C45.8451 43.5865 34.0743 41.3918 21.7045 48.1752Z" fill="#00A14B"/>
<path d="M88.931 53.7441H92.3774C94.108 53.7441 95.3254 54.2392 96.0306 55.2251C96.7325 56.2121 96.9136 57.4841 96.5728 59.0434C96.2224 60.6497 95.4626 61.9828 94.2934 63.0416C93.1243 64.1025 91.8458 64.6319 90.4591 64.6319H85.1074L88.931 53.7441ZM90.4934 55.5691L87.9547 62.8155H90.0176C91.1021 62.8155 92.0259 62.4586 92.7899 61.746C93.5572 61.0302 94.0598 60.1203 94.3009 59.0134C94.5238 57.9953 94.391 57.1648 93.9012 56.5272C93.4126 55.8885 92.6303 55.5691 91.5554 55.5691H90.4934ZM99.5198 55.3752C99.5873 55.0665 99.7491 54.8051 100.003 54.5875C100.259 54.3689 100.531 54.2607 100.825 54.2607C101.122 54.2607 101.349 54.3689 101.512 54.5875C101.672 54.8051 101.719 55.0665 101.651 55.3752C101.584 55.6859 101.422 55.9496 101.167 56.1671C100.909 56.3857 100.634 56.4939 100.337 56.4939C100.044 56.4939 99.8188 56.3857 99.6591 56.1671C99.4994 55.9496 99.4523 55.6859 99.5198 55.3752ZM100.936 57.3834L98.3817 64.6319H96.3263L98.8811 57.3834H100.936ZM109.112 57.3834L108.571 58.9812H107.458C107.547 59.3616 107.551 59.7431 107.466 60.1278C107.304 60.8705 106.909 61.4985 106.275 62.0086C105.644 62.5229 104.887 62.778 103.999 62.778C103.55 62.778 103.223 62.7994 103.024 62.8444C102.825 62.8873 102.705 62.9955 102.668 63.1659C102.648 63.2592 102.693 63.3417 102.799 63.4103C102.908 63.4831 103.388 63.5914 104.24 63.7403C105.09 63.8871 105.666 64.1507 105.963 64.5312C106.264 64.9084 106.35 65.3788 106.228 65.9404C105.884 67.5157 104.526 68.3022 102.155 68.3022C101.067 68.3022 100.282 68.1404 99.7995 67.8179C99.3172 67.4964 99.1383 67.0634 99.2572 66.518C99.4126 65.8053 100.1 65.262 101.318 64.8902C100.752 64.5569 100.532 64.11 100.656 63.5485C100.803 62.8734 101.364 62.4265 102.341 62.2079C101.649 61.7139 101.4 61.0162 101.598 60.1118C101.757 59.3831 102.18 58.7476 102.869 58.2021C103.556 57.6567 104.351 57.3834 105.253 57.3834H109.112ZM104.152 61.4374C104.905 61.4374 105.393 60.9176 105.621 59.8782C105.69 59.5567 105.659 59.3038 105.531 59.1173C105.401 58.9341 105.185 58.8408 104.889 58.8408C104.136 58.8408 103.646 59.3702 103.414 60.4311C103.267 61.102 103.514 61.4374 104.152 61.4374ZM104.249 66.2308C104.323 65.8932 104.05 65.6564 103.431 65.5203L102.578 65.3178C102.382 65.3178 102.109 65.3874 101.757 65.5224C101.404 65.6607 101.194 65.8771 101.13 66.1665C101.021 66.6669 101.474 66.9145 102.488 66.9145C103.058 66.9145 103.479 66.8641 103.756 66.7602C104.029 66.6562 104.194 66.4783 104.249 66.2308ZM110.924 55.3752C110.992 55.0665 111.152 54.8051 111.407 54.5875C111.662 54.3689 111.935 54.2607 112.229 54.2607C112.526 54.2607 112.753 54.3689 112.915 54.5875C113.076 54.8051 113.123 55.0665 113.056 55.3752C112.987 55.6859 112.826 55.9496 112.57 56.1671C112.313 56.3857 112.037 56.4939 111.742 56.4939C111.448 56.4939 111.223 56.3857 111.062 56.1671C110.903 55.9496 110.857 55.6859 110.924 55.3752ZM112.341 57.3834L109.785 64.6319H107.73L110.285 57.3834H112.341ZM117.368 55.8563L116.745 57.3834H118.266L117.643 58.9812H116.128L115.215 61.3281C115.138 61.5295 115.08 61.716 115.042 61.8896C114.903 62.5272 115.038 62.8466 115.45 62.8466C115.697 62.8466 116.124 62.7008 116.732 62.4104L116.318 64.3126C115.645 64.618 115.023 64.7723 114.448 64.7723C113.782 64.7723 113.303 64.5494 113.018 64.1047C112.73 63.661 112.664 63.0866 112.819 62.3783C112.867 62.1607 112.933 61.9475 113.017 61.7407L114.103 58.9812H112.706L113.314 57.3834H114.71L115.289 55.8563H117.368ZM126.273 57.5002L123.759 64.6319H121.709L121.946 63.9611C121.185 64.5012 120.462 64.7723 119.778 64.7723C119.08 64.7723 118.567 64.4797 118.235 63.9C117.906 63.3181 117.837 62.5722 118.036 61.6635C118.319 60.3625 118.984 59.3059 120.027 58.4872C121.067 57.6674 122.393 57.2602 124.002 57.2602C124.803 57.2602 125.56 57.3405 126.273 57.5002ZM122.452 62.5272L123.665 59.0755C123.516 59.0594 123.368 59.0509 123.226 59.0509C122.402 59.0509 121.727 59.3113 121.195 59.8353C120.663 60.3572 120.312 61.0034 120.143 61.7728C120.048 62.2079 120.063 62.5487 120.188 62.7962C120.312 63.0438 120.531 63.1659 120.843 63.1659C121.337 63.1659 121.873 62.9537 122.452 62.5272ZM131.564 53.7441L127.725 64.6319H125.675L129.508 53.7441H131.564ZM140.09 53.7441L136.251 64.6319H134.046L137.884 53.7441H140.09ZM143.015 57.3834L142.717 58.2021C143.623 57.5742 144.474 57.2602 145.277 57.2602C145.881 57.2602 146.302 57.4552 146.538 57.8485C146.774 58.2396 146.813 58.7905 146.66 59.4956C146.615 59.7024 146.551 59.921 146.473 60.1493L144.9 64.6319H142.845L144.366 60.3068C144.415 60.1814 144.451 60.056 144.479 59.9317C144.634 59.2159 144.5 58.8569 144.075 58.8569C143.585 58.8569 142.926 59.2288 142.101 59.9714L140.46 64.6319H138.404L140.965 57.3834H143.015ZM157.048 53.7441L153.253 64.5387C152.343 64.693 151.535 64.7723 150.824 64.7723C149.604 64.7723 148.701 64.4594 148.116 63.8282C147.534 63.2002 147.358 62.3579 147.59 61.2959C147.833 60.1782 148.429 59.2266 149.376 58.439C150.321 57.6524 151.448 57.2602 152.756 57.2602C152.966 57.2602 153.295 57.2848 153.74 57.3384L155.001 53.7441H157.048ZM151.76 62.9398L153.085 59.1762C152.914 59.1494 152.744 59.1387 152.574 59.1387C151.841 59.1387 151.216 59.3456 150.694 59.7635C150.171 60.1846 149.845 60.698 149.71 61.312C149.596 61.836 149.67 62.2507 149.931 62.5594C150.194 62.8659 150.609 63.0202 151.179 63.0202C151.327 63.0202 151.52 62.9934 151.76 62.9398ZM158.216 55.3752C158.283 55.0665 158.444 54.8051 158.7 54.5875C158.955 54.3689 159.227 54.2607 159.52 54.2607C159.817 54.2607 160.044 54.3689 160.207 54.5875C160.368 54.8051 160.414 55.0665 160.347 55.3752C160.279 55.6859 160.117 55.9496 159.862 56.1671C159.604 56.3857 159.33 56.4939 159.033 56.4939C158.739 56.4939 158.514 56.3857 158.354 56.1671C158.195 55.9496 158.148 55.6859 158.216 55.3752ZM159.633 57.3834L157.077 64.6319H155.022L157.578 57.3834H159.633ZM168.013 57.5002L165.498 64.6319H163.448L163.686 63.9611C162.924 64.5012 162.201 64.7723 161.516 64.7723C160.819 64.7723 160.306 64.4797 159.974 63.9C159.645 63.3181 159.576 62.5722 159.775 61.6635C160.059 60.3625 160.723 59.3059 161.767 58.4872C162.806 57.6674 164.132 57.2602 165.741 57.2602C166.542 57.2602 167.3 57.3405 168.013 57.5002ZM164.192 62.5272L165.404 59.0755C165.255 59.0594 165.107 59.0509 164.965 59.0509C164.141 59.0509 163.466 59.3113 162.934 59.8353C162.402 60.3572 162.05 61.0034 161.882 61.7728C161.787 62.2079 161.802 62.5487 161.928 62.7962C162.052 63.0438 162.27 63.1659 162.582 63.1659C163.076 63.1659 163.612 62.9537 164.192 62.5272Z" fill="#5C6266"/>
<path fill-rule="evenodd" clip-rule="evenodd" d="M85.9741 72.7282V75.5005H85.2754V68.9335H87.0082C87.6126 68.9335 88.2449 69.0482 88.7293 69.434C89.1751 69.7887 89.3658 70.272 89.3658 70.8357C89.3658 71.3983 89.1729 71.8784 88.7293 72.232C88.2449 72.6146 87.6105 72.7282 87.0082 72.7282H85.9741ZM85.9741 72.0702H87.1518C87.5333 72.0702 87.9427 71.9995 88.2406 71.7434C88.5149 71.5108 88.6146 71.1893 88.6146 70.8357C88.6146 70.4788 88.5149 70.1573 88.2406 69.9194C87.9416 69.6644 87.5333 69.5926 87.1518 69.5926H85.9741V72.0702Z" fill="#5C6266"/>
<path fill-rule="evenodd" clip-rule="evenodd" d="M92.1789 75.5229C91.5348 75.5229 90.9658 75.3204 90.5136 74.8564C90.0549 74.3859 89.8652 73.8008 89.8652 73.1514C89.8652 72.4999 90.0549 71.9116 90.5136 71.4411C90.9647 70.9749 91.5338 70.7713 92.1789 70.7713C92.824 70.7713 93.392 70.9749 93.8442 71.4411C94.3018 71.9116 94.4925 72.4999 94.4925 73.1514C94.4925 73.8008 94.3018 74.3859 93.8442 74.8564C93.392 75.3204 92.8229 75.5229 92.1789 75.5229ZM92.1789 74.8746C92.6375 74.8746 93.018 74.7042 93.333 74.3731C93.6599 74.0302 93.8153 73.624 93.8153 73.1514C93.8153 72.6778 93.6609 72.2673 93.333 71.9233C93.018 71.5911 92.6375 71.4197 92.1789 71.4197C91.7202 71.4197 91.3398 71.5911 91.0237 71.9233C90.6968 72.2673 90.5425 72.6778 90.5425 73.1514C90.5425 73.624 90.6968 74.0302 91.0237 74.3731C91.3398 74.7042 91.7202 74.8746 92.1789 74.8746Z" fill="#5C6266"/>
<path fill-rule="evenodd" clip-rule="evenodd" d="M97.2494 74.3382L98.5536 70.6775H98.9779L100.294 74.3296L101.669 70.745H102.327L100.475 75.5073H100.054L98.7497 71.9334L97.4487 75.5073H97.0276L95.1758 70.745H95.8745L97.2494 74.3382Z" fill="#5C6266"/>
<path fill-rule="evenodd" clip-rule="evenodd" d="M103.541 73.1347C103.541 73.6073 103.709 74.0059 104.043 74.3381C104.379 74.6736 104.781 74.8375 105.255 74.8375C105.533 74.8375 105.807 74.7946 106.068 74.6971C106.344 74.5953 106.597 74.4335 106.825 74.2492L106.987 74.1184V74.8568L106.951 74.8868C106.706 75.0904 106.434 75.2629 106.134 75.3744C105.845 75.4816 105.543 75.5298 105.236 75.5298C104.581 75.5298 103.997 75.3305 103.531 74.8643C103.065 74.3971 102.865 73.8141 102.865 73.1583C102.865 72.5292 103.023 71.9334 103.439 71.4522C103.826 70.9989 104.328 70.7782 104.924 70.7782C105.516 70.7782 106.06 70.9496 106.452 71.4083C106.843 71.8541 106.969 72.4553 106.982 73.0329L106.985 73.1347H103.541ZM106.248 72.5657C106.197 72.3149 106.102 72.077 105.935 71.8777C105.676 71.5594 105.33 71.4265 104.924 71.4265C104.52 71.4265 104.204 71.6098 103.95 71.9184C103.794 72.1124 103.684 72.3288 103.614 72.5657H106.248Z" fill="#5C6266"/>
<path fill-rule="evenodd" clip-rule="evenodd" d="M109.116 71.4373C109.55 70.7568 110.334 70.4321 111.094 70.8629C111.111 70.8726 111.128 70.8822 111.145 70.8919V70.9497V71.448V71.657C111.09 71.6131 111.134 71.6774 111.08 71.6334C109.994 71.0322 109.338 71.8981 109.116 72.4822V75.4849H108.453V75.3852V70.8126V70.7129H108.553H108.785H109.017H109.116V71.4373Z" fill="#5C6266"/>
<path fill-rule="evenodd" clip-rule="evenodd" d="M116.001 69.6077H113.877V69.0097H118.826V69.6077H116.711V75.4448H116.001V69.6077Z" fill="#5C6266"/>
<path fill-rule="evenodd" clip-rule="evenodd" d="M127.516 69.7098V71.8123H130.193V72.4382H127.516V74.7936H130.686V75.4194H126.807V69.084H130.573V69.7098H127.516Z" fill="#5C6266"/>
<path fill-rule="evenodd" clip-rule="evenodd" d="M132.624 71.3333C132.965 70.9464 133.401 70.7139 133.947 70.7139C134.434 70.7139 134.86 70.8671 135.191 71.2154C135.3 71.3322 135.39 71.4619 135.461 71.6001L135.566 71.4469C135.918 70.9925 136.382 70.7139 136.98 70.7139C137.467 70.7139 137.894 70.866 138.225 71.2143C138.568 71.5765 138.696 72.0352 138.696 72.5174V75.3647H138.005V72.5539C138.005 72.2356 137.925 71.9312 137.699 71.6912C137.486 71.4651 137.214 71.3719 136.897 71.3719C136.477 71.3719 136.147 71.6044 135.887 71.9055C135.801 71.9988 135.726 72.1016 135.66 72.2077V75.3647H134.97V72.5539C134.97 72.2356 134.89 71.9312 134.663 71.6912C134.451 71.4651 134.178 71.3719 133.864 71.3719C133.442 71.3719 133.11 71.6055 132.85 71.9055C132.765 71.9988 132.69 72.1016 132.624 72.2077V75.3647H131.934V70.8135H132.624V71.3333Z" fill="#5C6266"/>
<path d="M142.994 71.6272C142.412 71.2511 141.582 71.3443 140.895 72.2584V74.1102C141.608 74.87 142.519 74.9439 143.111 74.5035C144.013 73.8359 143.963 72.2509 142.994 71.6272ZM140.184 70.8128H140.875C140.876 71.0025 140.876 71.1932 140.877 71.3829C141.012 71.1225 141.267 70.965 141.534 70.8685C142.358 70.5717 143.358 70.6874 143.985 71.339C144.842 72.327 144.799 73.9152 144.009 74.8003C143.184 75.7241 141.94 75.498 140.955 74.9857C140.928 74.9718 140.902 74.9568 140.875 74.9439V77.1665H140.184V70.8128Z" fill="#5C6266"/>
<path fill-rule="evenodd" clip-rule="evenodd" d="M83.6934 65.7367H96.8294V66.4922H83.6934V65.7367Z" fill="#5C6266"/>
<path fill-rule="evenodd" clip-rule="evenodd" d="M107.414 65.7367H167.191V66.4922H107.414V65.7367Z" fill="#5C6266"/>
<path fill-rule="evenodd" clip-rule="evenodd" d="M120.712 75.4048C120.068 75.4048 119.499 75.2022 119.047 74.7382C118.588 74.2678 118.398 73.6827 118.398 73.0333C118.398 72.3817 118.588 71.7923 119.047 71.3229C119.498 70.8568 120.067 70.6532 120.712 70.6532C121.357 70.6532 121.925 70.8568 122.377 71.3229C122.835 71.7923 123.026 72.3817 123.026 73.0333C123.026 73.6827 122.835 74.2678 122.377 74.7382C121.925 75.2022 121.356 75.4048 120.712 75.4048ZM120.712 74.7564C121.171 74.7564 121.551 74.5861 121.866 74.2539C122.193 73.912 122.348 73.5059 122.348 73.0333C122.348 72.5596 122.194 72.1481 121.866 71.8052C121.551 71.473 121.171 71.3015 120.712 71.3015C120.253 71.3015 119.873 71.473 119.557 71.8052C119.23 72.1481 119.076 72.5596 119.076 73.0333C119.076 73.5059 119.23 73.912 119.557 74.2539C119.873 74.5861 120.253 74.7564 120.712 74.7564Z" fill="#5C6266"/>
<path fill-rule="evenodd" clip-rule="evenodd" d="M147.782 75.4048C147.138 75.4048 146.569 75.2022 146.117 74.7382C145.658 74.2678 145.469 73.6827 145.469 73.0333C145.469 72.3817 145.658 71.7923 146.117 71.3229C146.568 70.8568 147.137 70.6532 147.782 70.6532C148.428 70.6532 148.995 70.8568 149.448 71.3229C149.905 71.7923 150.096 72.3817 150.096 73.0333C150.096 73.6827 149.905 74.2678 149.448 74.7382C148.995 75.2022 148.426 75.4048 147.782 75.4048ZM147.782 74.7564C148.241 74.7564 148.621 74.5861 148.937 74.2539C149.263 73.912 149.419 73.5059 149.419 73.0333C149.419 72.5596 149.264 72.1481 148.937 71.8052C148.621 71.473 148.241 71.3015 147.782 71.3015C147.324 71.3015 146.943 71.473 146.627 71.8052C146.3 72.1481 146.146 72.5596 146.146 73.0333C146.146 73.5059 146.3 73.912 146.627 74.2539C146.943 74.5861 147.324 74.7564 147.782 74.7564Z" fill="#5C6266"/>
<path fill-rule="evenodd" clip-rule="evenodd" d="M152.851 74.3816L154.155 70.7209H154.579L155.895 74.3731L157.27 70.7885H157.928L156.077 75.5508H155.655L154.351 71.9769L153.05 75.5508H152.629L150.777 70.7885H151.476L152.851 74.3816Z" fill="#5C6266"/>
<path fill-rule="evenodd" clip-rule="evenodd" d="M159.143 73.1347C159.143 73.6073 159.31 74.0059 159.645 74.3381C159.981 74.6736 160.383 74.8375 160.857 74.8375C161.134 74.8375 161.408 74.7946 161.67 74.6971C161.945 74.5953 162.198 74.4335 162.426 74.2492L162.588 74.1184V74.8568L162.553 74.8868C162.308 75.0904 162.035 75.2629 161.735 75.3744C161.447 75.4816 161.145 75.5298 160.837 75.5298C160.182 75.5298 159.598 75.3305 159.132 74.8643C158.666 74.3971 158.467 73.8141 158.467 73.1583C158.467 72.5292 158.624 71.9334 159.04 71.4522C159.428 70.9989 159.93 70.7782 160.525 70.7782C161.118 70.7782 161.661 70.9496 162.054 71.4083C162.445 71.8541 162.57 72.4553 162.584 73.0329L162.586 73.1347H159.143ZM161.85 72.5657C161.798 72.3149 161.703 72.077 161.537 71.8777C161.278 71.5594 160.932 71.4265 160.525 71.4265C160.121 71.4265 159.805 71.6098 159.552 71.9184C159.396 72.1124 159.286 72.3288 159.216 72.5657H161.85Z" fill="#5C6266"/>
<path fill-rule="evenodd" clip-rule="evenodd" d="M164.718 71.3973C165.152 70.7168 165.935 70.3921 166.695 70.8229C166.712 70.8325 166.729 70.8422 166.746 70.8518V70.9097V71.408V71.617C166.692 71.573 166.736 71.6373 166.681 71.5934C165.596 70.9922 164.94 71.8581 164.718 72.441V75.4448H164.055V75.3452V70.7725V70.6729H164.154H164.387H164.618H164.718V71.3973Z" fill="#5C6266"/>
</g>
</g>
<defs>
<clipPath id="clip0_3597_1119">
<rect width="153.023" height="80.5321" fill="white" transform="translate(14.9883 13.7344)"/>
</clipPath>
</defs>
</svg>
