<svg width="183" height="108" viewBox="0 0 183 108" fill="none" xmlns="http://www.w3.org/2000/svg">
<rect width="183" height="108" fill="white"/>
<g clip-path="url(#clip0_3597_1061)">
<path d="M54.4146 17.0464C55.8062 16.8624 57.2605 17.0018 58.5506 17.5757C59.1445 17.8641 59.726 18.2028 60.1956 18.6742C60.7486 19.2017 61.1964 19.8392 61.498 20.5412C61.5293 20.5412 61.5901 20.5402 61.6204 20.5402C62.0701 20.0204 62.5064 19.4844 63.0282 19.0338C63.734 18.4276 64.5033 17.8708 65.3827 17.5463C66.7497 17.017 68.2551 16.8282 69.7056 17.072C71.009 17.2712 72.2754 17.8233 73.2345 18.7435C73.9972 19.4939 74.5721 20.4245 74.9582 21.4205C75.4761 22.8055 75.7247 24.2845 75.7332 25.7624C75.7266 26.361 75.7617 26.9596 75.737 27.5582C75.718 30.8812 75.7408 34.2053 75.718 37.5293C74.7182 37.5672 73.7174 37.5122 72.7175 37.5198C71.9757 37.5226 71.2348 37.5084 70.4939 37.5387C70.0794 37.535 69.6648 37.5568 69.2531 37.5122C69.2531 35.1235 69.2436 32.7339 69.2474 30.3443C69.237 28.8996 69.2778 27.4519 69.1933 26.0081C69.0985 24.9921 68.8509 23.9278 68.1717 23.1357C67.6196 22.5323 66.799 22.1624 65.9775 22.207C65.1446 22.2458 64.3335 22.6253 63.7691 23.2391C63.0823 23.9629 62.7265 24.9561 62.7085 25.9465C62.6658 29.1471 62.7085 32.3478 62.7056 35.5485C62.7056 36.2088 62.7104 36.87 62.6838 37.5312C61.72 37.5473 60.7572 37.5074 59.7933 37.5122C58.6151 37.5017 57.4379 37.5141 56.2597 37.515C56.199 33.8049 56.3033 30.0929 56.198 26.3819C56.1705 25.3507 55.9704 24.2892 55.3964 23.4146C54.9781 22.7885 54.297 22.3625 53.5608 22.225C52.6056 22.0941 51.6067 22.4593 50.9341 23.1461C50.4569 23.6299 50.0993 24.2294 49.8763 24.8698C49.6714 25.5091 49.6961 26.1893 49.6809 26.8524C49.6544 30.2883 49.6895 33.7252 49.6733 37.1612C49.6714 37.2769 49.6658 37.3946 49.6591 37.5122C47.9876 37.5245 46.3161 37.4999 44.6446 37.515C44.1751 37.5179 43.7064 37.5141 43.2369 37.5055C43.2388 34.1692 43.235 30.8329 43.2331 27.4975C43.2217 24.3613 43.2445 21.2213 43.0633 18.0889C43.0528 17.8916 43.0405 17.6924 43.0652 17.496C44.4986 17.4543 45.9329 17.4534 47.3672 17.4657C47.7998 17.497 48.24 17.4325 48.6678 17.5131C48.7209 18.2445 48.8177 18.9721 48.9154 19.6978C48.94 19.9132 48.9552 20.1294 49.0121 20.3391C49.0909 20.2774 49.1734 20.2186 49.237 20.1399C49.7426 19.4996 50.2918 18.881 50.9616 18.4058C51.9652 17.6507 53.1833 17.2342 54.4146 17.0464Z" fill="#92CA52"/>
<path d="M74.9543 17.2519C76.7207 17.2358 78.489 17.2301 80.2572 17.25C80.9715 17.2652 81.6877 17.2377 82.4021 17.2775C82.7597 18.3808 83.0851 19.4935 83.4389 20.5968C83.5755 21.0702 83.7482 21.535 83.8611 22.0131C83.8772 22.3091 83.9132 22.6345 84.1238 22.8621L84.1428 22.8858C84.3278 23.5281 84.5649 24.157 84.7224 24.8049C84.7234 25.026 84.7661 25.2432 84.8448 25.449C85.2499 26.7515 85.6094 28.0739 86.1624 29.3233C86.2696 29.5718 86.3967 29.8128 86.466 30.0755C86.5144 30.2339 86.5353 30.4104 86.6557 30.5356C86.6794 30.5489 86.725 30.5745 86.7487 30.5868C86.947 30.1495 87.0684 29.6828 87.2477 29.2379C87.7799 27.8946 88.0673 26.4745 88.4297 25.08C88.8034 23.6021 89.1914 22.1279 89.5623 20.6499C89.697 20.1718 89.791 19.6814 89.9446 19.2099C90.0234 19.0837 90.0974 18.9509 90.1296 18.8039C90.2397 18.3239 90.3772 17.8515 90.5024 17.3752C91.0792 17.2661 91.6683 17.3344 92.2517 17.3221C92.8721 17.3041 93.4897 17.3781 94.1101 17.3572C95.1906 17.3639 96.2701 17.3496 97.3506 17.379C97.3373 17.5431 97.3364 17.7082 97.3373 17.8723C97.0025 18.8646 96.5822 19.8312 96.2198 20.8159C95.1858 23.4398 94.1736 26.0714 93.1387 28.6953C91.7518 32.2678 90.5328 35.9115 88.9268 39.3958C88.4657 40.3891 87.9572 41.3652 87.353 42.2806C86.6643 43.3194 85.8228 44.2576 84.8562 45.044C84.2965 45.4737 83.6818 45.857 83.0139 46.0856C82.847 46.1302 82.6971 46.1842 82.5387 46.2307C82.0757 46.3986 81.572 46.4318 81.0844 46.4688C79.7174 46.6045 77.7879 46.1786 76.4342 46.0135C75.9077 45.9272 76.4826 46.0429 74.8633 45.6976C75.053 45.7071 75.792 45.6464 75.9779 45.6312C76.5794 45.5411 77.1002 45.5183 77.6741 45.3523C78.2803 45.1208 78.8703 44.84 79.4196 44.4938C79.7013 44.2652 80.0656 44.1703 80.3369 43.9284C80.5494 43.7434 80.7865 43.5907 81.0028 43.4123C81.3273 43.1088 81.5891 42.7464 81.8262 42.3717C82.2598 41.8272 82.5984 41.203 82.8024 40.5342C82.9684 40.1756 82.9333 39.7724 83.0291 39.3958C83.1287 38.9889 83.1742 38.5696 83.1961 38.1522C83.2122 37.8989 83.1059 37.6636 83.0291 37.4293C83.1799 37.1352 83.2758 36.8023 83.2492 36.4703C83.2501 36.3422 83.1553 36.2502 83.0898 36.1525C82.5586 34.8339 81.9657 33.5352 81.4164 32.2223C79.9394 28.8063 78.4728 25.3855 76.9968 21.9685C76.309 20.3995 75.6658 18.8096 74.9543 17.2519Z" fill="#418DC9"/>
<path d="M90.413 17.2724C90.7991 17.2211 91.189 17.2553 91.5779 17.2496C93.5814 17.2429 95.5859 17.261 97.5894 17.2695C97.5059 17.4706 97.4348 17.6774 97.338 17.8728C97.3371 17.7087 97.338 17.5437 97.3513 17.3795C96.2708 17.3501 95.1912 17.3644 94.1108 17.3577C93.4904 17.3786 92.8728 17.3046 92.2524 17.3226C91.669 17.335 91.0799 17.2667 90.5031 17.3758C90.3779 17.852 90.2403 18.3244 90.1303 18.8044C90.098 18.9514 90.024 19.0842 89.9453 19.2104C90.0724 18.5578 90.3067 17.9298 90.413 17.2724Z" fill="#406C9D"/>
<path d="M83.8613 22.0127C83.9657 22.2906 84.0463 22.5762 84.1241 22.8617C83.9135 22.634 83.8775 22.3087 83.8613 22.0127Z" fill="#406C9D"/>
<path d="M84.7227 24.8052C85.2406 26.3505 85.6248 27.9461 86.2993 29.4345C86.4672 29.7845 86.5848 30.1545 86.656 30.5359C86.5355 30.4106 86.5146 30.2342 86.4662 30.0758C86.397 29.813 86.2699 29.5721 86.1627 29.3235C85.6096 28.0742 85.2501 26.7518 84.845 25.4493C84.7663 25.2434 84.7236 25.0262 84.7227 24.8052Z" fill="#406C9D"/>
<path d="M83.0889 36.1514C83.1544 36.2491 83.2493 36.3411 83.2483 36.4692C83.2749 36.8012 83.1791 37.1341 83.0282 37.4282C82.9941 37.4377 82.9267 37.4567 82.8926 37.4662C83.0121 37.2319 83.1487 36.9975 83.1667 36.731C83.1933 36.5327 83.1297 36.3411 83.0889 36.1514Z" fill="#418DC9"/>
<path d="M76.7478 40.4326C77.373 40.4317 78 40.4649 78.6223 40.3833C78.4696 40.4288 78.3169 40.4753 78.1575 40.4782C77.575 40.4914 76.9916 40.4791 76.4082 40.4763C76.5201 40.4592 76.634 40.4431 76.7478 40.4326Z" fill="#406C9D"/>
<path d="M57.5994 48.3179L57.625 48.3264C57.6269 48.4137 57.6127 48.5304 57.5083 48.5512C57.4599 48.4725 57.5292 48.3606 57.5994 48.3179Z" fill="#406C9D"/>
<path d="M56.3867 51.7998C56.4009 51.6187 56.4465 51.4413 56.5062 51.2705C56.5015 51.4536 56.474 51.6367 56.3867 51.7998Z" fill="#406C9D"/>
<path d="M71.1836 57.2744C71.6114 57.2326 72.0421 57.264 72.4709 57.2535C73.5334 57.2535 74.5968 57.245 75.6592 57.2592L75.664 57.2953C74.6404 57.3057 73.6168 57.2943 72.5942 57.3019C72.1237 57.2924 71.6503 57.3398 71.1836 57.2744Z" fill="#406C9D"/>
<path d="M45.9079 75.9567C46.3348 75.6095 46.6298 75.1248 47.0614 74.7852C47.3517 75.2358 47.7122 75.6313 48.0395 76.0544C48.86 77.0514 49.6541 78.0693 50.4803 79.0625C50.7289 79.3566 50.9821 79.6478 51.2183 79.9524C51.6253 79.9742 52.0285 79.8869 52.4345 79.9106C53.4287 79.9353 54.4238 79.9609 55.4189 79.958C55.1637 79.4012 55.0926 78.7732 55.1722 78.1699C55.2965 77.5789 55.5896 77.0296 55.9738 76.5676C56.4652 75.9852 57.2422 75.6664 57.9992 75.7271C58.5532 75.7632 59.0702 76.0041 59.5227 76.3134C60.3821 76.8997 61.0234 77.7411 61.5755 78.61C61.8449 79.0521 62.1352 79.4847 62.3534 79.9561C62.6095 80.0207 62.8742 79.9647 63.1341 79.9713C63.5563 79.9543 63.9784 79.9856 64.3996 79.9505C64.4224 80.4902 64.3948 81.03 64.4015 81.5688C63.8627 81.5717 63.3238 81.5669 62.786 81.5887C62.7461 83.4784 62.7613 85.369 62.7594 87.2597C62.767 88.4844 62.7395 89.709 62.766 90.9328C62.1627 90.9489 61.5594 90.9631 60.957 90.9527C60.9817 87.8374 60.9466 84.7211 60.9636 81.6058C60.3091 81.6115 59.6555 81.6248 59.0019 81.621C58.982 82.3467 59.0114 83.0724 58.9943 83.7981C58.9734 84.391 58.7448 84.9924 58.2923 85.389C57.8085 85.7988 57.2023 86.053 56.5791 86.1393C56.857 86.5226 57.1226 86.9144 57.4025 87.2967C57.8872 87.9797 58.4621 88.5925 59.0379 89.1987C59.258 89.4406 59.5198 89.6445 59.7209 89.9035C59.7001 89.9898 59.6005 90.0363 59.5426 90.1018C59.1935 90.3939 58.8691 90.7174 58.519 91.0077C58.1785 90.9954 57.9318 90.6937 57.6852 90.4879C56.7403 89.4994 55.9397 88.3828 55.1666 87.2587C54.4845 86.2655 53.8745 85.2267 53.2892 84.1747C53.1782 83.9527 52.9866 83.7535 52.9724 83.4955C53.0283 83.3921 53.163 83.3741 53.2532 83.3077C53.6336 83.0525 53.9808 82.748 54.3631 82.4947C54.5329 82.6882 54.622 82.933 54.7567 83.1483C54.9436 83.4775 55.1428 83.7981 55.3307 84.1273C55.4616 84.355 55.693 84.5475 55.9681 84.5513C56.3846 84.5864 56.932 84.5267 57.1141 84.0836C57.2573 83.2669 57.1672 82.433 57.1938 81.6087C56.4747 81.5707 55.7538 81.6011 55.0337 81.5954C54.0842 81.5925 53.1336 81.6039 52.1841 81.6182C52.1546 82.1778 52.167 82.7385 52.1651 83.3001C52.1499 85.8415 52.1537 88.3828 52.1442 90.9252C51.5532 90.929 50.9622 90.9565 50.3712 90.9337C50.3589 89.9158 50.3684 88.898 50.3636 87.8801C50.3504 87.2473 50.4006 86.6108 50.3409 85.98C49.4112 85.98 48.4806 85.9695 47.5509 85.9724C47.5405 86.3604 47.5528 86.7512 47.5082 87.1382C47.4902 87.2758 47.494 87.4276 47.4153 87.549C47.1535 87.8042 46.7607 87.9009 46.4069 87.8146C45.9345 87.5604 45.5522 87.1714 45.2088 86.7654C44.8397 86.3518 44.4612 85.9022 44.3389 85.3463C44.2658 85.0095 44.4698 84.6832 44.7344 84.4944C44.9773 84.3199 45.2903 84.317 45.5778 84.318C45.648 84.3331 45.7409 84.2999 45.7305 84.2127C45.7694 83.3456 45.7239 82.4748 45.7504 81.6096C44.9346 81.5233 44.1065 81.603 43.2859 81.5726C43.2878 81.0309 43.2593 80.4893 43.2669 79.9495C45.3273 79.9827 47.3906 79.9059 49.4501 79.9884C48.2691 78.6821 47.0216 77.4366 45.8121 76.1569C45.8206 76.0791 45.8358 75.9975 45.9079 75.9567ZM57.6406 77.3066C57.2535 77.465 57.0657 77.8891 57.0097 78.2799C56.8997 78.741 57.1027 79.1944 57.2962 79.6033C57.3702 79.7475 57.4205 79.9694 57.6283 79.9561C58.5978 79.995 59.5673 79.9059 60.5377 79.8935C60.3698 79.6127 60.1469 79.3727 59.9609 79.1052C59.5454 78.5446 59.1176 77.9773 58.5617 77.5476C58.298 77.373 57.9622 77.151 57.6406 77.3066ZM47.5595 81.6077C47.55 82.5013 47.5538 83.3959 47.5595 84.2895C48.4882 84.3085 49.4188 84.2999 50.3475 84.2895C50.3361 83.3874 50.3836 82.4843 50.3437 81.5831C49.4159 81.5973 48.4872 81.5783 47.5595 81.6077Z" fill="#406C9D"/>
<path d="M70.2537 79.9781C73.5265 79.9573 76.8012 80.0142 80.074 79.9592C81.6829 79.944 83.2917 79.9487 84.9006 79.9668C86.5285 79.9658 88.1554 79.9516 89.7832 79.9459C91.3902 79.9592 92.9981 79.9706 94.6051 79.9649C96.3772 79.9668 98.1492 79.9791 99.9222 79.9573C101.799 79.9326 103.675 79.9687 105.552 79.9459C106.891 79.944 108.23 79.9715 109.569 79.9658C110.64 79.9649 111.71 79.963 112.781 79.9772C113.022 79.9829 113.266 79.9649 113.507 80.0038C113.514 80.5246 113.484 81.0454 113.466 81.5662C112.973 81.5756 112.48 81.5652 111.989 81.5956C111.902 81.6278 111.943 81.7417 111.93 81.8119C111.916 82.5632 111.963 83.3154 111.91 84.0668C111.851 84.6065 111.587 85.1169 111.158 85.4555C110.691 85.8388 110.105 86.0579 109.51 86.1319C109.823 86.5446 110.108 86.9781 110.418 87.3936C111.084 88.2948 111.866 89.1011 112.661 89.8876C112.66 89.9084 112.659 89.9483 112.657 89.9691C112.225 90.3002 111.84 90.6882 111.428 91.0439C110.976 90.8722 110.642 90.507 110.32 90.1608C109.419 89.1258 108.601 88.0188 107.848 86.8709C107.193 85.9005 106.632 84.8702 106.045 83.8571C105.983 83.7376 105.894 83.619 105.91 83.4777C106.361 83.2206 106.758 82.8829 107.183 82.5859C107.249 82.53 107.373 82.4996 107.408 82.6106C107.655 83.0982 107.952 83.5583 108.218 84.0364C108.335 84.2328 108.488 84.4339 108.707 84.5202C109.04 84.5838 109.403 84.58 109.718 84.4415C109.948 84.339 110.088 84.1 110.1 83.8524C110.157 83.1029 110.121 82.3497 110.143 81.5994C109.168 81.5595 108.191 81.5918 107.216 81.5927C106.344 81.5889 105.473 81.6079 104.601 81.6079C104.543 84.7137 104.608 87.8195 104.578 90.9254C103.989 90.9481 103.4 90.9538 102.812 90.9576C102.761 90.3695 102.814 89.7747 102.8 89.1846C102.811 87.1394 102.794 85.0941 102.798 83.0498C102.785 82.5698 102.817 82.0841 102.783 81.6079C101.315 81.5832 99.8454 81.5937 98.3769 81.5775C97.7802 81.5851 97.1816 81.5538 96.5887 81.6117C96.602 82.1666 96.6276 82.7225 96.5887 83.2756C96.9046 83.1333 97.1864 82.9104 97.5298 82.8316C98.5306 82.5736 99.6784 82.8743 100.387 83.638C100.825 84.0819 101.137 84.6568 101.224 85.2791C101.324 85.8284 101.173 86.3805 100.99 86.8956C100.715 87.5995 100.264 88.2161 99.7828 88.7919C99.4754 89.141 99.1984 89.5223 98.8389 89.8202C98.3114 89.418 97.987 89.1362 97.47 88.7141C97.6749 88.4921 97.8902 88.2796 97.9794 88.1734C98.2811 87.8717 98.4869 87.534 98.7506 87.1982C99.0684 86.758 99.3549 86.2619 99.4099 85.7117C99.3872 85.355 99.3739 84.948 99.0988 84.6834C98.7782 84.3314 98.2213 84.2451 97.803 84.4633C97.3419 84.6834 97.026 85.1159 96.7908 85.5561C96.5584 86.0058 96.5991 86.5247 96.5963 87.0132C96.6086 88.3214 96.5982 89.6305 96.6295 90.9377C96.0186 90.9785 95.4048 90.9709 94.792 90.9709C94.7863 90.1266 94.7797 89.2823 94.7977 88.438C94.4894 88.5443 94.1953 88.7084 93.8671 88.7426C93.2505 88.8033 92.612 88.771 92.0315 88.5348C91.0952 88.18 90.4473 87.2893 90.1949 86.3416C89.9151 85.2402 90.3296 84.007 91.2052 83.2879C91.8294 82.7747 92.6557 82.492 93.4639 82.5916C93.9117 82.6258 94.3518 82.7406 94.7531 82.9445C94.7626 83.5137 94.7607 84.0829 94.7531 84.6521C94.4097 84.4557 94.0483 84.2916 93.6755 84.1616C93.1708 84.0022 92.5921 84.2717 92.3332 84.7232C91.9347 85.3294 91.9243 86.1604 92.3123 86.7732C92.7344 87.3158 93.5834 87.367 94.1118 86.9506C94.3812 86.722 94.6801 86.4687 94.773 86.1139C94.8328 85.5276 94.8167 84.9604 94.8138 84.3665C94.8176 83.9112 94.8186 83.4492 94.8138 82.9976C94.8005 82.5281 94.8005 82.0547 94.7863 81.5842C92.7211 81.6003 90.655 81.5557 88.5898 81.6316C88.6174 82.3896 88.624 83.1504 88.5775 83.9074C88.5481 84.4016 88.384 84.8978 88.0292 85.2535C87.6118 85.6652 87.072 85.9555 86.4972 86.0684C86.3871 86.0873 86.2809 86.1148 86.1803 86.1613C86.5294 86.6053 86.833 87.0815 87.1707 87.534C87.5501 88.0539 88.0112 88.5045 88.4229 88.9987C88.6866 89.3127 88.993 89.5878 89.2842 89.8762V89.9691C88.8868 90.3192 88.5026 90.6873 88.1041 91.0373C87.738 90.9396 87.4743 90.6474 87.2039 90.4008C86.279 89.4284 85.4983 88.3318 84.7394 87.2276C83.9321 86.0437 83.2177 84.7991 82.529 83.5441C83.0043 83.1893 83.4824 82.8364 83.9634 82.493C84.2745 82.992 84.562 83.508 84.8551 84.0184C84.9528 84.1844 85.0761 84.339 85.2345 84.45C85.4034 84.5733 85.6244 84.5382 85.8208 84.5496C86.0978 84.5382 86.4374 84.5155 86.6072 84.2612C86.8074 83.914 86.7694 83.4985 86.7922 83.1134C86.8102 82.6125 86.7865 82.1107 86.8045 81.6098C86.2315 81.5548 85.6548 81.5956 85.0799 81.5861C83.8457 81.5956 82.6106 81.587 81.3764 81.6183C81.3717 83.4369 81.367 85.2563 81.3708 87.0749C81.3622 88.3546 81.3888 89.6362 81.3556 90.9149C80.7731 91.0031 80.1603 90.9557 79.5655 90.9737C79.5674 89.2615 79.5854 87.5473 79.5608 85.8341C78.7203 85.8312 77.8817 85.8435 77.0431 85.8378C76.7661 85.6946 76.6561 85.485 76.5498 85.2222C76.4142 85.4195 76.1523 85.7639 75.9417 85.908C75.6135 86.1253 75.2255 86.2135 74.8669 86.3643C75.1012 86.8055 75.4209 87.1963 75.7017 87.6089C76.3202 88.439 77.0118 89.214 77.7716 89.916C77.4045 90.2689 76.9852 90.5649 76.6039 90.9045C76.5261 90.9965 76.4009 90.9775 76.2956 90.9918C75.6609 90.6209 75.2587 89.9834 74.8375 89.4028C73.8927 87.9571 72.8397 86.5816 71.9954 85.0723C71.7554 84.634 71.486 84.209 71.2915 83.7471C71.8019 83.4596 72.2563 83.084 72.7648 82.7927C73.0854 83.3667 73.3235 83.9928 73.7058 84.5344C73.9202 84.7944 74.2816 84.7507 74.5795 84.7194C74.681 84.7071 74.8404 84.6748 74.8242 84.5392C74.8451 83.8381 74.8328 83.1371 74.8518 82.4351C74.848 82.161 74.8717 81.8821 74.8328 81.6117C74.4258 81.5548 73.9999 81.5937 73.5863 81.5794C72.4716 81.5756 71.357 81.5908 70.2424 81.5737C70.2386 81.0548 70.2461 80.534 70.2148 80.0161L70.2537 79.9781ZM76.6693 81.5889C76.6323 82.4664 76.6466 83.3439 76.6561 84.2214C77.6161 84.2261 78.5751 84.2214 79.5352 84.2271C79.5864 83.3809 79.5636 82.53 79.5665 81.6809C79.593 81.5709 79.4583 81.5937 79.3976 81.5899C78.4879 81.5633 77.5791 81.5832 76.6693 81.5889Z" fill="#406C9D"/>
<path d="M81.0273 39.5408C81.7786 38.982 82.3753 38.2392 82.8933 37.4689C82.9065 37.4405 83.0156 37.2394 83.0033 37.2489C83.0811 37.4832 83.212 37.9006 83.1959 38.1539C83.174 38.5713 83.1285 38.9905 83.0289 39.3975C82.9331 39.7741 82.9682 40.1773 82.8022 40.5359C82.5982 41.2047 82.2596 41.8289 81.826 42.3734C81.5889 42.7481 81.3271 43.1105 81.0026 43.414C80.7863 43.5924 80.5492 43.7451 80.3367 43.9301C80.0654 44.172 79.7011 44.2668 79.4194 44.4955C78.8701 44.8417 78.2801 45.1225 77.6739 45.354C77.1142 45.5494 77.2508 45.4669 76.6351 45.5636C76.4369 45.5769 75.8468 45.6499 75.6504 45.6699C75.3858 45.6822 75.3061 45.6869 75.013 45.7002L74.716 45.7031C74.5889 45.7031 74.4466 45.704 74.3243 45.7097C73.5549 45.6831 72.0105 45.7325 70.8703 45.9156C68.9816 46.1973 67.109 46.9543 65.7382 48.3184C64.2621 49.73 63.5032 51.7525 63.3192 53.7579C63.2831 54.3963 63.2831 55.0376 63.3135 55.676C63.4757 57.6795 64.1293 59.7191 65.5219 61.2104C66.4753 62.2671 67.7313 63.0279 69.0793 63.4672C70.2935 63.8523 71.5723 63.9927 72.8425 64.0031C73.6915 63.9889 74.5339 63.858 75.3715 63.7299C75.4816 63.692 75.6998 63.7214 75.6751 63.5468C75.7225 62.0622 75.6912 60.5748 75.6931 59.0883C75.6846 58.4906 75.7093 57.892 75.6637 57.2963L75.659 57.2603C74.5965 57.246 73.5331 57.2546 72.4706 57.2546C72.0418 57.265 71.6112 57.2337 71.1833 57.2754C71.1701 57.2764 71.1435 57.2792 71.1302 57.2802C71.1454 56.396 71.1274 55.5119 71.1274 54.6269C71.1207 53.6194 71.1416 52.6101 71.1198 51.6026C73.2172 51.5893 75.3156 51.6187 77.414 51.6064C79.0693 51.6206 80.7266 51.5798 82.3819 51.6216C82.3952 54.8327 82.3781 58.0438 82.381 61.254C82.3677 63.4264 82.418 65.5978 82.3715 67.7692C81.0055 68.1477 79.6375 68.5272 78.2412 68.7738C76.6228 69.0925 74.9798 69.2804 73.331 69.3373C71.9536 69.4132 70.5724 69.3278 69.1997 69.2007C66.6024 68.9076 64.0012 68.1923 61.7985 66.7437C60.4429 65.8596 59.2609 64.7051 58.3588 63.359C57.3694 61.9228 56.7252 60.2665 56.3648 58.5656C55.9303 56.3923 55.8952 54.1345 56.3344 51.9593C56.3467 51.9043 56.3638 51.8521 56.3866 51.8009C56.4738 51.6377 56.5014 51.4546 56.5061 51.2715C56.711 50.3381 57.0648 49.4378 57.4652 48.5708L57.5088 48.5537C57.6132 48.5328 57.6274 48.4162 57.6255 48.3289C57.6207 48.2388 57.6701 48.16 57.7071 48.0832C58.8236 46 60.5027 44.2298 62.5005 42.9748C64.5002 41.7387 66.7608 40.9665 69.0679 40.5615C69.8875 40.4363 70.7081 40.2997 71.5391 40.2854C72.7571 40.2532 73.9771 40.2636 75.1951 40.3177C75.7102 40.3803 76.2301 40.3746 76.7471 40.4344C76.6332 40.4448 77.0506 40.4192 76.9387 40.4353C77.5211 40.4391 77.5743 40.442 78.1567 40.4287C78.4252 40.3974 78.8568 40.3793 79.0797 40.3376C79.2296 40.3006 79.3501 40.2684 79.4839 40.2295C80.0303 40.0843 80.5682 39.8756 81.0273 39.5408Z" fill="#1BB99D"/>
<path d="M98.2148 40.0998C99.7146 39.9784 101.229 40.0922 102.707 40.3569C105.103 40.8085 107.419 41.8444 109.226 43.5016C110.047 44.2378 110.776 45.0764 111.363 46.0117C112.166 47.2307 112.752 48.5853 113.139 49.9912C113.517 51.399 113.746 52.8523 113.744 54.3113C113.76 56.772 113.363 59.2613 112.376 61.5247C111.448 63.6658 109.944 65.5621 108.029 66.8987C105.809 68.4744 103.114 69.294 100.416 69.4885C98.8674 69.5454 97.3012 69.534 95.7777 69.2219C93.3265 68.7201 90.9558 67.6016 89.1724 65.8201C87.5806 64.2994 86.4517 62.3348 85.7716 60.2507C85.3371 58.9036 85.0724 57.4996 84.9937 56.0871C84.9112 55.1878 84.9605 54.2857 85.0421 53.3902C85.2612 50.8099 86.0685 48.2552 87.5227 46.1028C88.7332 44.2454 90.4464 42.7313 92.412 41.7154C94.2049 40.7753 96.2065 40.2763 98.2148 40.0998ZM98.5781 45.4179C97.5128 45.508 96.4883 45.9254 95.6203 46.5448C94.9629 47.0353 94.4022 47.6547 93.9658 48.3501C93.2382 49.4828 92.7886 50.7748 92.5391 52.0934C92.3228 53.394 92.1597 54.723 92.3162 56.0406C92.467 57.6856 92.8351 59.339 93.6471 60.7914C94.1622 61.7495 94.9192 62.5701 95.8071 63.1943C96.6201 63.7578 97.5839 64.0718 98.562 64.1809C99.9622 64.3829 101.42 64.0642 102.64 63.3565C103.534 62.8091 104.283 62.037 104.82 61.1376C105.401 60.2042 105.787 59.1607 106.037 58.0935C106.408 56.5567 106.462 54.9602 106.351 53.3883C106.241 52.1095 105.939 50.844 105.431 49.6639C105.014 48.7039 104.425 47.8132 103.67 47.0846C102.847 46.2603 101.764 45.7167 100.625 45.4871C99.9508 45.3752 99.2602 45.3562 98.5781 45.4179Z" fill="#C1569C"/>
<path d="M112.312 40.5338C114.736 40.4911 117.16 40.5186 119.584 40.5233C119.684 40.5404 119.847 40.4996 119.885 40.6296C120.087 41.0954 120.209 41.5896 120.36 42.0734C121.158 44.6869 121.944 47.3032 122.732 49.9205C123.762 53.3081 124.786 56.7004 125.629 60.1411C125.797 60.8222 125.897 61.5194 126.134 62.1816C126.156 62.192 126.198 62.2138 126.218 62.2243C126.516 60.8867 126.838 59.5539 127.207 58.2353C127.869 55.6929 128.638 53.1819 129.434 50.6794C130.476 47.3298 131.524 43.983 132.591 40.641C132.614 40.4977 132.771 40.5281 132.878 40.5243C135.188 40.5177 137.498 40.5034 139.807 40.5271C139.904 40.5053 139.963 40.5926 139.915 40.6799C139.118 42.9907 138.304 45.2969 137.488 47.6001C135.763 52.4989 134.032 57.3967 132.308 62.2954C131.507 64.4953 130.761 66.716 129.941 68.9083C129.912 69.0705 129.727 69.0715 129.598 69.0696C128.094 69.0838 126.59 69.0715 125.086 69.0819C124.137 69.08 123.189 69.1028 122.241 69.0629C122.103 69.0345 121.884 69.0743 121.848 68.8931C121.504 67.9274 121.186 66.9532 120.863 65.9799C119.192 61.0755 117.572 56.1521 115.908 51.2438C115.1 48.8172 114.276 46.3954 113.468 43.9688C113.087 42.8219 112.714 41.6731 112.312 40.5338Z" fill="#F17024"/>
</g>
<defs>
<clipPath id="clip0_3597_1061">
<rect width="97.1399" height="74.0692" fill="white" transform="translate(42.9297 16.9658)"/>
</clipPath>
</defs>
</svg>
