<svg width="183" height="108" viewBox="0 0 183 108" fill="none" xmlns="http://www.w3.org/2000/svg">
<rect width="183" height="108" fill="white"/>
<rect x="15" y="27.999" width="153" height="52" rx="14" fill="#120060"/>
<path d="M50.4103 52.1294H44.4759V48.1543C44.4759 46.9985 44.4101 46.2796 44.2785 45.9977C44.1564 45.7063 43.8791 45.5607 43.4469 45.5607C42.9582 45.5607 42.6481 45.7345 42.5165 46.0822C42.385 46.4299 42.3192 47.1817 42.3192 48.3376V58.9378C42.3192 60.0466 42.385 60.7702 42.5165 61.1085C42.6481 61.4468 42.9441 61.616 43.4046 61.616C43.8462 61.616 44.1329 61.4468 44.2644 61.1085C44.4054 60.7702 44.4759 59.9762 44.4759 58.7263V55.8648H50.4103V56.7529C50.4103 59.1116 50.2411 60.7843 49.9028 61.771C49.5739 62.7578 48.8362 63.6223 47.6897 64.3647C46.5527 65.1071 45.1478 65.4783 43.4751 65.4783C41.7366 65.4783 40.3035 65.1635 39.1758 64.5339C38.0481 63.9042 37.301 63.035 36.9345 61.9261C36.568 60.8078 36.3848 59.1304 36.3848 56.8938V50.2265C36.3848 48.5819 36.4412 47.3509 36.5539 46.5333C36.6667 45.7063 37.0003 44.9123 37.5547 44.1511C38.1186 43.3899 38.8939 42.7932 39.8806 42.3609C40.8767 41.9192 42.0185 41.6984 43.3059 41.6984C45.0538 41.6984 46.4963 42.0367 47.6334 42.7133C48.7704 43.3899 49.5175 44.2357 49.8746 45.2506C50.2317 46.2561 50.4103 47.8254 50.4103 49.9586V52.1294ZM52.5388 42.1777H58.5154C60.1318 42.1777 61.3722 42.3045 62.2368 42.5582C63.1107 42.812 63.7638 43.1785 64.1961 43.6577C64.6378 44.137 64.9338 44.7196 65.0842 45.4056C65.2439 46.0822 65.3238 47.1347 65.3238 48.5631V50.5507C65.3238 52.0072 65.1734 53.0691 64.8727 53.7363C64.572 54.4036 64.0176 54.9157 63.2094 55.2728C62.4106 55.6299 61.3628 55.8085 60.066 55.8085H58.4732V64.999H52.5388V42.1777ZM58.4732 46.0822V51.8898C58.6423 51.8992 58.788 51.9039 58.9101 51.9039C59.4552 51.9039 59.8311 51.7723 60.0378 51.5092C60.2539 51.2367 60.362 50.6775 60.362 49.8318V47.957C60.362 47.177 60.2399 46.6696 59.9955 46.4346C59.7512 46.1997 59.2437 46.0822 58.4732 46.0822ZM80.6461 50.5789H74.7117V48.5067C74.7117 47.2005 74.6553 46.383 74.5426 46.054C74.4298 45.7251 74.162 45.5607 73.7391 45.5607C73.3726 45.5607 73.1236 45.7016 72.992 45.9836C72.8604 46.2655 72.7947 46.9891 72.7947 48.1543V59.1069C72.7947 60.1312 72.8604 60.8078 72.992 61.1367C73.1236 61.4562 73.3867 61.616 73.7814 61.616C74.2137 61.616 74.505 61.4327 74.6553 61.0662C74.8151 60.6998 74.895 59.9856 74.895 58.9237V56.2172H73.6968V52.7496H80.6461V64.999H76.9107L76.3609 63.3639C75.9569 64.0687 75.4447 64.5996 74.8245 64.9567C74.2137 65.3044 73.4901 65.4783 72.6537 65.4783C71.6576 65.4783 70.7226 65.2387 69.8486 64.7594C68.984 64.2707 68.3262 63.6693 67.8752 62.9551C67.4241 62.2409 67.1422 61.4938 67.0294 60.7139C66.9166 59.9245 66.8603 58.7451 66.8603 57.1758V50.3956C66.8603 48.2154 66.9777 46.632 67.2127 45.6453C67.4476 44.6585 68.1195 43.7564 69.2284 42.9388C70.3467 42.1119 71.7891 41.6984 73.5558 41.6984C75.2943 41.6984 76.7368 42.0555 77.8833 42.7697C79.0298 43.4839 79.7769 44.3343 80.1246 45.3211C80.4723 46.2984 80.6461 47.7221 80.6461 49.5921V50.5789ZM82.9578 42.1777H87.1584C89.9588 42.1777 91.8524 42.2857 92.8391 42.5019C93.8352 42.718 94.6434 43.2724 95.2636 44.1652C95.8932 45.0485 96.2081 46.4628 96.2081 48.4081C96.2081 50.1842 95.9872 51.3776 95.5455 51.9884C95.1039 52.5993 94.2346 52.9658 92.9378 53.0879C94.1125 53.3793 94.9018 53.7692 95.3059 54.2579C95.71 54.7466 95.959 55.1976 96.053 55.6111C96.1564 56.0152 96.2081 57.1382 96.2081 58.98V64.999H90.6965V57.4154C90.6965 56.1937 90.5979 55.4373 90.4005 55.1459C90.2126 54.8546 89.7098 54.709 88.8923 54.709V64.999H82.9578V42.1777ZM88.8923 46.0822V51.1568C89.5595 51.1568 90.0246 51.0675 90.2878 50.889C90.5603 50.701 90.6965 50.1043 90.6965 49.0988V47.8442C90.6965 47.1206 90.565 46.6461 90.3018 46.4205C90.0481 46.195 89.5783 46.0822 88.8923 46.0822ZM108.768 42.1777L112.165 64.999H106.089L105.793 60.8971H103.665L103.312 64.999H97.1666L100.183 42.1777H108.768ZM105.624 56.8516C105.323 54.2673 105.023 51.0769 104.722 47.2804C104.121 51.6407 103.745 54.8311 103.594 56.8516H105.624ZM131.49 42.1777V64.999H126.303V49.5921L124.231 64.999H120.552L118.367 49.9445V64.999H113.18V42.1777H120.862C121.087 43.5497 121.327 45.166 121.581 47.0267L122.398 52.8342L123.752 42.1777H131.49ZM146.446 49.0847H140.935V47.3932C140.935 46.6038 140.864 46.101 140.723 45.8849C140.582 45.6688 140.347 45.5607 140.018 45.5607C139.661 45.5607 139.389 45.7063 139.201 45.9977C139.022 46.289 138.933 46.7307 138.933 47.3227C138.933 48.0839 139.036 48.6571 139.243 49.0424C139.44 49.4277 140 49.8928 140.92 50.4379C143.561 52.0072 145.224 53.2947 145.91 54.3002C146.596 55.3057 146.939 56.9267 146.939 59.1633C146.939 60.789 146.747 61.9872 146.361 62.7578C145.986 63.5283 145.253 64.1768 144.163 64.703C143.072 65.2199 141.804 65.4783 140.357 65.4783C138.768 65.4783 137.411 65.1776 136.283 64.5761C135.165 63.9747 134.432 63.2088 134.084 62.2785C133.736 61.3482 133.562 60.0278 133.562 58.3175V56.8234H139.074V59.6003C139.074 60.4554 139.149 61.0052 139.299 61.2495C139.459 61.4938 139.736 61.616 140.131 61.616C140.526 61.616 140.817 61.4609 141.005 61.1508C141.202 60.8407 141.301 60.3802 141.301 59.7694C141.301 58.4256 141.118 57.547 140.751 57.1335C140.375 56.72 139.45 56.0293 137.974 55.0614C136.499 54.084 135.522 53.3746 135.042 52.9329C134.563 52.4912 134.164 51.8804 133.844 51.1004C133.534 50.3204 133.379 49.3243 133.379 48.1121C133.379 46.3642 133.6 45.0861 134.042 44.278C134.493 43.4698 135.216 42.8402 136.212 42.3891C137.209 41.9286 138.411 41.6984 139.821 41.6984C141.362 41.6984 142.673 41.9474 143.754 42.4455C144.844 42.9435 145.563 43.5732 145.91 44.3343C146.268 45.0861 146.446 46.3689 146.446 48.1825V49.0847Z" fill="white"/>
</svg>
