<svg width="183" height="108" viewBox="0 0 183 108" fill="none" xmlns="http://www.w3.org/2000/svg">
<rect width="183" height="108" fill="white"/>
<g clip-path="url(#clip0_3597_1026)">
<path fill-rule="evenodd" clip-rule="evenodd" d="M131.027 60.5792H129.211V61.3471H135.423V60.5792H133.65V54.3969C133.65 51.899 135.376 48.7885 137.645 48.7885C138.97 48.7885 139.738 49.1509 139.738 51.5798V60.5792H138.012V61.3471H144.138V60.5792H142.343V51.1656C142.343 48.1025 139.582 47.8394 138.383 47.8394C135.954 47.8394 134.655 49.2674 133.728 51.3641H133.65V47.8394C133.04 47.9759 132.419 48.0639 131.795 48.1025C131.173 48.1605 130.548 48.1835 129.923 48.1715H129.233V48.9352H131.049V60.5835" fill="#231F20"/>
<path fill-rule="evenodd" clip-rule="evenodd" d="M153.777 51.9989C153.953 52.9635 154.028 53.9438 154.001 54.9239C154.001 58.3753 153.57 59.0526 152.306 60.1829C151.65 60.7057 150.852 61.0171 150.015 61.076C147.28 61.076 146.65 59.3805 146.65 54.2595C146.65 51.8997 146.749 48.5001 149.843 48.5001C152.936 48.5001 153.639 51.52 153.777 51.9989ZM156.465 60.5799V38.146C155.234 38.36 153.986 38.4596 152.737 38.4437H151.65V39.1857H153.876V50.3681H153.803C153.441 49.6164 152.876 48.9811 152.171 48.5343C151.467 48.0874 150.651 47.8469 149.817 47.84C145.856 47.84 143.617 51.0325 143.617 54.7427C143.617 58.5349 146.115 61.7619 149.485 61.7619C150.361 61.8036 151.232 61.6015 152 61.178C152.769 60.7546 153.405 60.1264 153.838 59.3632H153.902V61.598C155.357 61.3912 156.825 61.3017 158.294 61.3305V60.5799H156.465Z" fill="#231F20"/>
<path fill-rule="evenodd" clip-rule="evenodd" d="M165.657 61.3471V60.5792H163.69V47.8394C162.465 48.0995 161.213 48.211 159.962 48.1715H158.875V48.9395H161.101V60.5878H158.875V61.3558H165.657" fill="#231F20"/>
<path fill-rule="evenodd" clip-rule="evenodd" d="M178.639 59.052C178.466 59.6171 178.143 60.5447 177.474 60.5447C176.805 60.5447 176.792 60.014 176.792 59.0175V51.0966C176.792 49.7678 176.792 47.8394 172.275 47.8394C168.315 47.8394 166.943 49.8368 166.943 51.0319C166.943 51.9637 167.448 52.6281 168.354 52.6281C168.538 52.6379 168.722 52.6083 168.893 52.5412C169.065 52.4742 169.22 52.3712 169.349 52.2393C169.478 52.1074 169.577 51.9495 169.639 51.7763C169.702 51.603 169.727 51.4183 169.713 51.2346C169.713 50.1302 168.712 49.9663 168.712 49.6988C168.712 48.7367 171.076 48.5037 171.805 48.5037C172.97 48.5037 174.204 48.9697 174.204 50.5314V53.6937C169.109 53.6937 165.951 55.4194 165.852 58.5213C165.852 60.9804 167.646 61.7785 169.734 61.7785C170.584 61.7978 171.427 61.6251 172.201 61.2733C172.975 60.9214 173.66 60.3996 174.204 59.7466C174.441 60.9804 175.144 61.7785 176.361 61.7785C177.095 61.7802 177.8 61.4967 178.329 60.9881C178.858 60.4794 179.169 59.7852 179.195 59.052H178.626M174.204 57.4859C174.204 58.8837 173.734 59.2504 173.475 59.5179C173.131 59.8457 172.725 60.1001 172.28 60.2655C171.835 60.4309 171.36 60.5039 170.886 60.48C169.368 60.48 168.341 59.4834 168.341 57.8526C168.341 54.7939 172.025 54.4271 174.191 54.4013L174.204 57.4859Z" fill="#231F20"/>
<path fill-rule="evenodd" clip-rule="evenodd" d="M12.7406 60.5799H9.88031V39.889H12.7406V39.1211H3.79297V39.889H6.65329V60.5799H3.79297V61.3479H12.7406V60.5799Z" fill="#231F20"/>
<path fill-rule="evenodd" clip-rule="evenodd" d="M15.2307 60.5792H13.4102V61.3471H19.6226V60.5792H17.8279V54.3969C17.8279 51.899 19.5536 48.7885 21.8272 48.7885C23.1516 48.7885 23.9152 49.1509 23.9152 51.5798V60.5792H22.1896V61.3471H28.3157V60.5792H26.5167V51.1656C26.5167 48.1025 23.7556 47.8394 22.5563 47.8394C20.1187 47.8394 18.8288 49.2674 17.8883 51.3641H17.8279V47.8394C17.2131 47.9759 16.5885 48.0639 15.9599 48.1025C15.3433 48.1606 14.7239 48.1837 14.1047 48.1715H13.4102V48.9352H15.2307V60.5835" fill="#231F20"/>
<path fill-rule="evenodd" clip-rule="evenodd" d="M39.3981 57.2234C38.5956 59.6178 36.7362 61.1838 34.8078 61.0803C33.0821 60.9811 32.0467 60.2822 31.5376 59.182C31.0697 57.9071 30.8359 56.5581 30.8473 55.2C30.8473 50.8427 31.6757 48.513 34.8682 48.513C35.5973 48.513 37.7026 48.8797 37.7026 49.7771C37.7026 50.1395 36.637 50.3077 36.637 51.602C36.6238 51.8107 36.6551 52.0199 36.7288 52.2156C36.8026 52.4113 36.9171 52.5891 37.0648 52.7372C37.2124 52.8852 37.3899 53.0002 37.5854 53.0745C37.7809 53.1488 37.99 53.1807 38.1987 53.168C39.1392 53.168 39.6958 52.3052 39.6958 51.4079C39.6958 48.8452 36.637 47.8486 34.4713 47.8486C32.5773 47.8486 27.8145 49.2766 27.8145 55.1828C27.8145 57.4779 29.3848 61.7706 34.536 61.7706C37.9873 61.6368 39.3377 59.5746 40.0927 57.2148H39.3981" fill="#231F20"/>
<path fill-rule="evenodd" clip-rule="evenodd" d="M44.5973 47.8394C43.3725 48.0985 42.1211 48.21 40.8698 48.1715H39.8301V48.9352H42.095V60.5835H39.8301V61.3514H47.2591V60.5792H44.6965V54.2589C44.712 53.0155 44.9945 51.7899 45.5248 50.6652C45.896 49.802 46.5694 49.104 47.4188 48.7022C47.518 48.7022 47.7164 48.7022 47.7164 48.905C47.6629 49.1342 47.6211 49.366 47.5913 49.5996C47.6177 49.9374 47.7617 50.2553 47.9981 50.4981C48.2345 50.7408 48.5486 50.893 48.8856 50.9283C49.5931 50.9283 50.4603 50.5314 50.4603 49.6988C50.4603 48.4347 49.5543 47.8394 48.4283 47.8394C46.5991 47.8394 45.2746 49.4658 44.6663 50.9672H44.6059V47.8394" fill="#231F20"/>
<path fill-rule="evenodd" clip-rule="evenodd" d="M61.7242 57.2227C61.254 59.4144 59.0278 61.0753 57.1339 61.0753C53.5057 61.0753 53.0742 58.4178 53.0742 55.126V53.7584H62.4922C62.4533 50.1302 59.9036 47.8394 56.504 47.8394C52.5436 47.8394 49.9551 51.4288 49.9551 55.359C49.9551 59.052 53.2209 61.7785 56.6119 61.7785C59.5326 61.7785 61.7889 60.316 62.4663 57.2227H61.7372M53.1088 52.7921C53.1151 52.0495 53.2269 51.3115 53.441 50.6004C53.5014 50.3675 54.4073 48.4994 56.4005 48.4994C58.0572 48.4994 59.455 49.2674 59.455 51.6617V52.7921H53.1088Z" fill="#231F20"/>
<path fill-rule="evenodd" clip-rule="evenodd" d="M73.5064 51.9989C73.6866 52.9631 73.7662 53.9433 73.7437 54.9239C73.7437 58.3753 73.3122 59.0526 72.0482 60.1829C71.3912 60.7033 70.5931 61.0144 69.7573 61.076C67.0221 61.076 66.3923 59.3805 66.3923 54.2595C66.3923 51.8997 66.4915 48.5001 69.5848 48.5001C72.6781 48.5001 73.3683 51.52 73.5064 51.9989ZM76.2028 60.5799V38.146C74.9735 38.3596 73.7272 38.4592 72.4796 38.4437H71.3795V39.1857H73.6056V50.3681H73.5452C73.1795 49.6166 72.6115 48.982 71.9051 48.5354C71.1986 48.0888 70.3817 47.848 69.5459 47.84C65.5855 47.84 63.3594 51.0325 63.3594 54.7427C63.3594 58.5349 65.8573 61.7619 69.2224 61.7619C70.0973 61.802 70.9663 61.5991 71.7331 61.1757C72.4999 60.7524 73.1345 60.1251 73.5668 59.3633H73.6444V61.598C75.0988 61.3904 76.5675 61.3009 78.0363 61.3305V60.5799H76.2028Z" fill="#231F20"/>
<path fill-rule="evenodd" clip-rule="evenodd" d="M85.4003 61.3471V60.5792H83.4331V47.8394C82.2083 48.0983 80.9569 48.2098 79.7056 48.1715H78.6055V48.9395H80.8316V60.5878H78.6055V61.3558H85.4003" fill="#231F20"/>
<path fill-rule="evenodd" clip-rule="evenodd" d="M90.3876 38.124C89.1569 38.3377 87.9091 38.4373 86.6601 38.4217H85.8965V39.1853H87.7861V60.5449H85.8965V61.3474C87.3676 61.3129 88.7913 61.5113 90.2495 61.6149V59.3154H90.3272C91.1167 60.6442 92.5878 61.7788 94.2488 61.7788C97.8123 61.7788 100.634 58.9185 100.634 54.7941C100.634 51.7742 98.8391 47.8396 94.21 47.8396C93.4388 47.8829 92.6906 48.1184 92.0336 48.5245C91.3766 48.9306 90.8315 49.4945 90.448 50.165H90.3876V38.124ZM90.448 51.7483C90.5213 50.7474 92.0572 48.4824 94.2488 48.4824C97.4801 48.4824 97.6139 52.1495 97.6139 54.6431C97.6139 57.305 97.5793 61.0583 94.2488 61.0583C93.2479 61.0583 90.2883 60.4932 90.2883 56.3127C90.2883 55.4758 90.3617 52.6499 90.448 51.7526" fill="#231F20"/>
<path fill-rule="evenodd" clip-rule="evenodd" d="M107.766 61.3478V60.5799H105.207V38.146C103.977 38.3621 102.729 38.4618 101.48 38.4437H100.056V39.19H102.589V60.5799H100.039V61.3478H107.766Z" fill="#231F20"/>
<path fill-rule="evenodd" clip-rule="evenodd" d="M118.813 57.2227C118.343 59.4144 116.117 61.0753 114.223 61.0753C110.595 61.0753 110.163 58.4178 110.163 55.126V53.7584H119.581C119.555 50.1302 116.993 47.8394 113.593 47.8394C109.633 47.8394 107.031 51.4288 107.031 55.359C107.031 59.052 110.301 61.7785 113.692 61.7785C116.622 61.7785 118.869 60.316 119.555 57.2227H118.813ZM110.185 52.7921C110.191 52.0495 110.303 51.3115 110.517 50.6004C110.578 50.3675 111.471 48.4994 113.477 48.4994C115.133 48.4994 116.544 49.2674 116.544 51.6617V52.7921H110.185Z" fill="#231F20"/>
<path fill-rule="evenodd" clip-rule="evenodd" d="M12.7406 60.5799H9.88031V39.889H12.7406V39.1211H3.79297V39.889H6.65329V60.5799H3.79297V61.3479H12.7406V60.5799Z" fill="#231F20"/>
<path fill-rule="evenodd" clip-rule="evenodd" d="M15.2307 60.5792H13.4102V61.3471H19.6226V60.5792H17.8279V54.3969C17.8279 51.899 19.5536 48.7885 21.8272 48.7885C23.1516 48.7885 23.9152 49.1509 23.9152 51.5798V60.5792H22.1896V61.3471H28.3157V60.5792H26.5167V51.1656C26.5167 48.1025 23.7556 47.8394 22.5563 47.8394C20.1187 47.8394 18.8288 49.2674 17.8883 51.3641H17.8279V47.8394C17.2131 47.9759 16.5885 48.0639 15.9599 48.1025C15.3433 48.1606 14.7239 48.1837 14.1047 48.1715H13.4102V48.9352H15.2307V60.5835" fill="#231F20"/>
<path fill-rule="evenodd" clip-rule="evenodd" d="M39.3981 57.2234C38.5956 59.6178 36.7362 61.1838 34.8078 61.0803C33.0821 60.9811 32.0467 60.2822 31.5376 59.182C31.0697 57.9071 30.8359 56.5581 30.8473 55.2C30.8473 50.8427 31.6757 48.513 34.8682 48.513C35.5973 48.513 37.7026 48.8797 37.7026 49.7771C37.7026 50.1395 36.637 50.3077 36.637 51.602C36.6238 51.8107 36.6551 52.0199 36.7288 52.2156C36.8026 52.4113 36.9171 52.5891 37.0648 52.7372C37.2124 52.8852 37.3899 53.0002 37.5854 53.0745C37.7809 53.1488 37.99 53.1807 38.1987 53.168C39.1392 53.168 39.6958 52.3052 39.6958 51.4079C39.6958 48.8452 36.637 47.8486 34.4713 47.8486C32.5773 47.8486 27.8145 49.2766 27.8145 55.1828C27.8145 57.4779 29.3848 61.7706 34.536 61.7706C37.9873 61.6368 39.3377 59.5746 40.0927 57.2148H39.3981" fill="#231F20"/>
<path fill-rule="evenodd" clip-rule="evenodd" d="M44.5973 47.8394C43.3725 48.0985 42.1211 48.21 40.8698 48.1715H39.8301V48.9352H42.095V60.5835H39.8301V61.3514H47.2591V60.5792H44.6965V54.2589C44.712 53.0155 44.9945 51.7899 45.5248 50.6652C45.896 49.802 46.5694 49.104 47.4188 48.7022C47.518 48.7022 47.7164 48.7022 47.7164 48.905C47.6629 49.1342 47.6211 49.366 47.5913 49.5996C47.6177 49.9374 47.7617 50.2553 47.9981 50.4981C48.2345 50.7408 48.5486 50.893 48.8856 50.9283C49.5931 50.9283 50.4603 50.5314 50.4603 49.6988C50.4603 48.4347 49.5543 47.8394 48.4283 47.8394C46.5991 47.8394 45.2746 49.4658 44.6663 50.9672H44.6059V47.8394" fill="#231F20"/>
<path fill-rule="evenodd" clip-rule="evenodd" d="M61.7242 57.2227C61.254 59.4144 59.0278 61.0753 57.1339 61.0753C53.5057 61.0753 53.0742 58.4178 53.0742 55.126V53.7584H62.4922C62.4533 50.1302 59.9036 47.8394 56.504 47.8394C52.5436 47.8394 49.9551 51.4288 49.9551 55.359C49.9551 59.052 53.2209 61.7785 56.6119 61.7785C59.5326 61.7785 61.7889 60.316 62.4663 57.2227H61.7372M53.1088 52.7921C53.1151 52.0495 53.2269 51.3115 53.441 50.6004C53.5014 50.3675 54.4073 48.4994 56.4005 48.4994C58.0572 48.4994 59.455 49.2674 59.455 51.6617V52.7921H53.1088Z" fill="#231F20"/>
<path fill-rule="evenodd" clip-rule="evenodd" d="M73.5064 51.9989C73.6866 52.9631 73.7662 53.9433 73.7437 54.9239C73.7437 58.3753 73.3122 59.0526 72.0482 60.1829C71.3912 60.7033 70.5931 61.0144 69.7573 61.076C67.0221 61.076 66.3923 59.3805 66.3923 54.2595C66.3923 51.8997 66.4915 48.5001 69.5848 48.5001C72.6781 48.5001 73.3683 51.52 73.5064 51.9989ZM76.2028 60.5799V38.146C74.9735 38.3596 73.7272 38.4592 72.4796 38.4437H71.3795V39.1857H73.6056V50.3681H73.5452C73.1795 49.6166 72.6115 48.982 71.9051 48.5354C71.1986 48.0888 70.3817 47.848 69.5459 47.84C65.5855 47.84 63.3594 51.0325 63.3594 54.7427C63.3594 58.5349 65.8573 61.7619 69.2224 61.7619C70.0973 61.802 70.9663 61.5991 71.7331 61.1757C72.4999 60.7524 73.1345 60.1251 73.5668 59.3633H73.6444V61.598C75.0988 61.3904 76.5675 61.3009 78.0363 61.3305V60.5799H76.2028Z" fill="#231F20"/>
<path fill-rule="evenodd" clip-rule="evenodd" d="M85.4003 61.3471V60.5792H83.4331V47.8394C82.2083 48.0983 80.9569 48.2098 79.7056 48.1715H78.6055V48.9395H80.8316V60.5878H78.6055V61.3558H85.4003" fill="#231F20"/>
<path fill-rule="evenodd" clip-rule="evenodd" d="M90.3876 38.124C89.1569 38.3377 87.9091 38.4373 86.6601 38.4217H85.8965V39.1853H87.7861V60.5449H85.8965V61.3474C87.3676 61.3129 88.7913 61.5113 90.2495 61.6149V59.3154H90.3272C91.1167 60.6442 92.5878 61.7788 94.2488 61.7788C97.8123 61.7788 100.634 58.9185 100.634 54.7941C100.634 51.7742 98.8391 47.8396 94.21 47.8396C93.4388 47.8829 92.6906 48.1184 92.0336 48.5245C91.3766 48.9306 90.8315 49.4945 90.448 50.165H90.3876V38.124ZM90.448 51.7483C90.5213 50.7474 92.0572 48.4824 94.2488 48.4824C97.4801 48.4824 97.6139 52.1495 97.6139 54.6431C97.6139 57.305 97.5793 61.0583 94.2488 61.0583C93.2479 61.0583 90.2883 60.4932 90.2883 56.3127C90.2883 55.4758 90.3617 52.6499 90.448 51.7526" fill="#231F20"/>
<path fill-rule="evenodd" clip-rule="evenodd" d="M107.766 61.3478V60.5799H105.207V38.146C103.977 38.3621 102.729 38.4618 101.48 38.4437H100.056V39.19H102.589V60.5799H100.039V61.3478H107.766Z" fill="#231F20"/>
<path fill-rule="evenodd" clip-rule="evenodd" d="M118.813 57.2227C118.343 59.4144 116.117 61.0753 114.223 61.0753C110.595 61.0753 110.163 58.4178 110.163 55.126V53.7584H119.581C119.555 50.1302 116.993 47.8394 113.593 47.8394C109.633 47.8394 107.031 51.4288 107.031 55.359C107.031 59.052 110.301 61.7785 113.692 61.7785C116.622 61.7785 118.869 60.316 119.555 57.2227H118.813ZM110.185 52.7921C110.191 52.0495 110.303 51.3115 110.517 50.6004C110.578 50.3675 111.471 48.4994 113.477 48.4994C115.133 48.4994 116.544 49.2674 116.544 51.6617V52.7921H110.185Z" fill="#231F20"/>
<path fill-rule="evenodd" clip-rule="evenodd" d="M126.29 70.4846C128.059 70.4846 129.655 69.2162 129.655 67.2921C129.655 65.5233 127.886 64.2031 126.29 64.2031C125.474 64.2191 124.695 64.5466 124.112 65.1185C123.53 65.6905 123.189 66.4635 123.158 67.2792C123.137 67.6987 123.204 68.1179 123.353 68.5104C123.503 68.903 123.732 69.2604 124.026 69.5602C124.32 69.86 124.673 70.0958 125.063 70.2526C125.452 70.4095 125.87 70.4841 126.29 70.4717" fill="#EC2227"/>
<path fill-rule="evenodd" clip-rule="evenodd" d="M126.873 61.3688C127.119 51.0147 128.802 42.1663 128.802 40.8806C128.802 39.1981 128.042 37.5112 126.403 37.5112C124.764 37.5112 124 39.1981 124 40.8806C124 42.1749 125.683 51.0276 125.941 61.3688H126.873Z" fill="#231F20"/>
</g>
<defs>
<clipPath id="clip0_3597_1026">
<rect width="175.416" height="32.9735" fill="white" transform="translate(3.79297 37.5127)"/>
</clipPath>
</defs>
</svg>
