<svg width="19" height="19" viewBox="0 0 19 19" fill="none" xmlns="http://www.w3.org/2000/svg">
<circle cx="9.61328" cy="9.78125" r="9" fill="#008CFF"/>
<path d="M11.5434 9.73393C11.5434 9.48075 11.4944 9.22711 11.3959 8.98875C11.3024 8.76209 11.1616 8.54848 10.9745 8.3614C10.787 8.17387 10.5734 8.03356 10.3467 7.94002C10.1084 7.84153 9.85476 7.79206 9.60156 7.79252V7.1211C9.94244 7.12065 10.2829 7.18675 10.6022 7.31898C10.9125 7.4476 11.2016 7.63602 11.4508 7.88517C11.6999 8.13432 11.8888 8.42348 12.017 8.73378C12.1492 9.05307 12.2149 9.39352 12.2149 9.73439L11.5434 9.73393Z" fill="white"/>
<path d="M12.7559 9.73349C12.7563 9.32245 12.6763 8.91052 12.5162 8.52374C12.3633 8.15452 12.1353 7.80689 11.8317 7.50333C11.5282 7.19978 11.1805 6.97177 10.8113 6.81887C10.4246 6.65877 10.0131 6.57873 9.60156 6.57918V5.9082C10.1007 5.90776 10.599 6.00444 11.0668 6.19782C11.5201 6.38535 11.9428 6.66192 12.308 7.02709C12.6731 7.39226 12.9497 7.81544 13.1372 8.26827C13.3306 8.73597 13.4273 9.23425 13.4268 9.73349H12.7559Z" fill="white"/>
<path d="M13.8842 9.73337C13.8842 9.17482 13.7758 8.61628 13.5586 8.09097C13.3509 7.58863 13.041 7.11689 12.6295 6.70542C12.218 6.29393 11.7458 5.98408 11.244 5.77631C10.7191 5.5591 10.1601 5.45027 9.60156 5.45072V4.7793C10.2478 4.77885 10.8936 4.90431 11.4989 5.15481C12.0848 5.39721 12.6326 5.75563 13.1057 6.22872C13.5788 6.70182 13.9368 7.24957 14.1796 7.83555C14.4301 8.44131 14.5556 9.08709 14.5551 9.73284L13.8842 9.73337Z" fill="white"/>
<path fill-rule="evenodd" clip-rule="evenodd" d="M12.2692 14.8015C13.4825 14.7786 14.1742 14.0204 14.5281 13.4353C14.7408 13.0841 14.6437 12.6285 14.3055 12.396L12.7154 11.3037C12.388 11.0788 11.9436 11.1386 11.6873 11.4417L11.3293 11.8654C11.2938 11.8618 11.2583 11.8573 11.2227 11.8519C10.0364 11.6644 7.66958 9.29745 7.48204 8.11118C7.47665 8.0761 7.47215 8.04058 7.46855 8.0046L7.89218 7.64662C8.19529 7.39028 8.2551 6.94597 8.03024 6.61857L6.93789 5.02844C6.70539 4.69026 6.24982 4.59312 5.8986 4.80583C5.31398 5.15976 4.5553 5.85142 4.53239 7.06474C4.33451 9.32675 10.008 15.0004 12.2692 14.8015Z" fill="white"/>
</svg>
