<svg width="53" height="53" viewBox="0 0 53 53" fill="none" xmlns="http://www.w3.org/2000/svg">
<path d="M22.9802 36.2779L35.6915 28.1296C36.2999 27.7385 36.6041 27.1953 36.6041 26.5C36.6041 25.8047 36.2999 25.2615 35.6915 24.8703L22.9802 16.7221C22.3283 16.2875 21.6652 16.2545 20.9907 16.623C20.3162 16.9915 19.9799 17.5678 19.9816 18.3517V34.6483C19.9816 35.4305 20.3189 36.0067 20.9933 36.377C21.6678 36.7473 22.3301 36.7142 22.9802 36.2779ZM26.5002 52.5745C22.8933 52.5745 19.5036 51.8896 16.3312 50.5198C13.1588 49.15 10.3993 47.2926 8.05256 44.9477C5.70586 42.6027 3.84849 39.8432 2.48045 36.669C1.11241 33.4949 0.427523 30.1052 0.425785 26.5C0.424046 22.8948 1.10894 19.5051 2.48045 16.331C3.85197 13.1568 5.70934 10.3973 8.05256 8.05232C10.3958 5.70735 13.1553 3.84998 16.3312 2.4802C19.5071 1.11043 22.8967 0.425537 26.5002 0.425537C30.1037 0.425537 33.4934 1.11043 36.6693 2.4802C39.8451 3.84998 42.6047 5.70735 44.9479 8.05232C47.2911 10.3973 49.1494 13.1568 50.5226 16.331C51.8959 19.5051 52.5799 22.8948 52.5747 26.5C52.5695 30.1052 51.8846 33.4949 50.52 36.669C49.1555 39.8432 47.2981 42.6027 44.9479 44.9477C42.5977 47.2926 39.8382 49.1509 36.6693 50.5224C33.5004 51.8939 30.1107 52.5779 26.5002 52.5745ZM26.5002 47.3596C32.3235 47.3596 37.256 45.3388 41.2975 41.2972C45.339 37.2557 47.3598 32.3233 47.3598 26.5C47.3598 20.6767 45.339 15.7443 41.2975 11.7027C37.256 7.6612 32.3235 5.64043 26.5002 5.64043C20.6769 5.64043 15.7445 7.6612 11.703 11.7027C7.66145 15.7443 5.64068 20.6767 5.64068 26.5C5.64068 32.3233 7.66145 37.2557 11.703 41.2972C15.7445 45.3388 20.6769 47.3596 26.5002 47.3596Z" fill="white"/>
</svg>
