<svg width="22" height="20" viewBox="0 0 22 20" fill="none" xmlns="http://www.w3.org/2000/svg">
<path d="M13.521 8.98393V3.5957H12.3672V9.22301C12.3672 9.37578 12.4281 9.52278 12.5361 9.63101L15.0058 12.1009L15.8218 11.2852L13.521 8.98393Z" fill="#008CFF"/>
<path d="M17.4054 12.8143L16.5898 11.998L15.7736 12.8136L16.5892 13.6298L17.4054 12.8143Z" fill="#008CFF"/>
<path d="M18.607 8.62891H17.4531V9.78275H18.607V8.62891Z" fill="#008CFF"/>
<path d="M17.4058 5.59283L16.5898 4.77734L15.774 5.59362L16.59 6.40911L17.4058 5.59283Z" fill="#008CFF"/>
<path d="M7.65091 12.0894C9.6263 12.0894 11.2281 10.4876 11.2281 8.51293C11.2281 6.53732 9.6263 4.93555 7.65091 4.93555C5.67599 4.93555 4.07422 6.53732 4.07422 8.51293C4.07422 10.4876 5.67599 12.0894 7.65091 12.0894Z" fill="#008CFF"/>
<path d="M12.9586 0.78125C10.2886 0.78125 7.91034 2.0251 6.36719 3.96287C6.77588 3.84748 7.20534 3.78125 7.65073 3.78125C8.0105 3.78125 8.35942 3.82533 8.69611 3.90148C9.86403 2.96133 11.3463 2.39663 12.9586 2.39663C16.7126 2.39663 19.7663 5.45063 19.7663 9.20433C19.7663 11.9276 18.1586 14.281 15.8433 15.3689V17.1204C19.0745 15.9426 21.3817 12.8433 21.3817 9.20433C21.3817 4.55248 17.6107 0.78125 12.9586 0.78125Z" fill="#008CFF"/>
<path d="M9.88381 12.7812H5.34276C2.79682 12.7812 0.709216 14.2907 0.621543 16.1597H0.613281V19.7812H6.35099L7.03951 16.4213L5.89197 14.4613H9.33459L8.18705 16.4213L8.87558 19.7812H14.6133V16.1597H14.605C14.5173 14.2907 12.4297 12.7812 9.88381 12.7812Z" fill="#008CFF"/>
</svg>
