<svg width="17" height="18" viewBox="0 0 17 18" fill="none" xmlns="http://www.w3.org/2000/svg">
<path d="M15.6779 0H0.912469C0.670467 0 0.438377 0.103002 0.267256 0.286346C0.096135 0.46969 0 0.718358 0 0.977645V16.7977C0 16.9261 0.0236018 17.0532 0.0694576 17.1719C0.115314 17.2905 0.182526 17.3982 0.267256 17.489C0.351987 17.5798 0.452577 17.6518 0.563282 17.701C0.673988 17.7501 0.792642 17.7754 0.912469 17.7754H8.85925V10.8874H6.7025V8.22111H8.85925V6.22138C8.81457 5.75189 8.8663 5.27762 9.01081 4.83182C9.15532 4.38603 9.38911 3.9795 9.69578 3.64076C10.0025 3.30202 10.3746 3.03927 10.7861 2.87093C11.1976 2.7026 11.6384 2.63276 12.0778 2.66631C12.7234 2.66205 13.3687 2.69766 14.0105 2.77296V5.17263H12.6916C11.6464 5.17263 11.4473 5.70589 11.4473 6.47912V8.19445H13.9359L13.6124 10.8608H11.4473V17.7754H15.6779C15.7977 17.7754 15.9164 17.7501 16.0271 17.701C16.1378 17.6518 16.2384 17.5798 16.3231 17.489C16.4078 17.3982 16.475 17.2905 16.5209 17.1719C16.5667 17.0532 16.5903 16.9261 16.5903 16.7977V0.977645C16.5903 0.849259 16.5667 0.72213 16.5209 0.603517C16.475 0.484903 16.4078 0.377129 16.3231 0.286346C16.2384 0.195563 16.1378 0.12355 16.0271 0.0744189C15.9164 0.0252876 15.7977 0 15.6779 0V0Z" fill="black"/>
</svg>
