<svg width="28" height="27" viewBox="0 0 28 27" fill="none" xmlns="http://www.w3.org/2000/svg">
<g clip-path="url(#clip0_1258_669)">
<path d="M21.273 0H7.09829C3.64454 0 0.844727 2.79982 0.844727 6.25356V20.4283C0.844727 23.8821 3.64454 26.6819 7.09829 26.6819H21.273C24.7268 26.6819 27.5266 23.8821 27.5266 20.4283V6.25356C27.5266 2.79982 24.7268 0 21.273 0Z" fill="black"/>
<path fill-rule="evenodd" clip-rule="evenodd" d="M22.5369 5.41374C22.6259 5.31195 22.694 5.19363 22.7373 5.06553C22.7806 4.93742 22.7982 4.80205 22.7892 4.66713C22.7802 4.53222 22.7447 4.4004 22.6847 4.27921C22.6247 4.15802 22.5414 4.04983 22.4396 3.96082C22.3379 3.8718 22.2195 3.80371 22.0914 3.76043C21.9633 3.71714 21.8279 3.69951 21.693 3.70854C21.5581 3.71758 21.4263 3.7531 21.3051 3.81307C21.1839 3.87305 21.0757 3.9563 20.9867 4.05809L15.7265 10.0695L11.262 4.11779C11.1661 3.98995 11.0418 3.88619 10.8988 3.81473C10.7559 3.74326 10.5983 3.70605 10.4385 3.70605H6.3209C6.12973 3.70605 5.94233 3.75929 5.77971 3.85979C5.61709 3.96029 5.48567 4.10408 5.40018 4.27506C5.31469 4.44604 5.2785 4.63745 5.29566 4.82784C5.31283 5.01823 5.38268 5.20008 5.49738 5.35301L12.1236 14.1869L6.57516 20.5276C6.48614 20.6294 6.41804 20.7477 6.37476 20.8758C6.33147 21.004 6.31384 21.1393 6.32287 21.2742C6.33191 21.4092 6.36743 21.541 6.4274 21.6622C6.48738 21.7834 6.57064 21.8915 6.67243 21.9806C6.77423 22.0696 6.89256 22.1377 7.02066 22.181C7.14877 22.2242 7.28415 22.2419 7.41908 22.2328C7.554 22.2238 7.68582 22.1883 7.80702 22.1283C7.92821 22.0683 8.03641 21.9851 8.12542 21.8833L13.3856 15.8709L17.8501 21.8226C17.946 21.9504 18.0703 22.0542 18.2133 22.1256C18.3562 22.1971 18.5138 22.2343 18.6736 22.2343H22.7912C22.9824 22.2343 23.1698 22.1811 23.3324 22.0806C23.495 21.9801 23.6264 21.8363 23.7119 21.6653C23.7974 21.4943 23.8336 21.3029 23.8164 21.1125C23.7992 20.9221 23.7294 20.7403 23.6147 20.5873L16.9885 11.7535L22.5369 5.41374ZM19.1883 20.1756L8.37968 5.76475H9.92377L20.7324 20.1756H19.1883Z" fill="white"/>
</g>
<defs>
<clipPath id="clip0_1258_669">
<rect width="26.6819" height="26.6819" fill="white" transform="translate(0.844727)"/>
</clipPath>
</defs>
</svg>
