<svg width="38" height="27" viewBox="0 0 38 27" fill="none" xmlns="http://www.w3.org/2000/svg">
<g clip-path="url(#clip0_1258_666)">
<path d="M37.0915 4.188C36.8746 3.38362 36.4517 2.6503 35.8648 2.06105C35.2779 1.4718 34.5474 1.04719 33.7462 0.829492C30.8129 0.0263672 19.0074 0.0263672 19.0074 0.0263672C19.0074 0.0263672 7.20136 0.0506773 4.26807 0.853802C3.46683 1.07151 2.73638 1.49615 2.14946 2.08542C1.56253 2.6747 1.13962 3.40805 0.922834 4.21246C0.035584 9.44477 -0.308597 17.4176 0.947197 22.4406C1.16401 23.245 1.58693 23.9783 2.17385 24.5676C2.76077 25.1568 3.49121 25.5814 4.29244 25.7991C7.22572 26.6023 19.0315 26.6023 19.0315 26.6023C19.0315 26.6023 30.8372 26.6023 33.7703 25.7991C34.5715 25.5815 35.302 25.1569 35.889 24.5676C36.4759 23.9784 36.8989 23.245 37.1157 22.4406C38.0515 17.2009 38.3399 9.23295 37.0915 4.188Z" fill="#FF0000"/>
<path d="M15.2495 19.0087L25.0431 13.3139L15.2495 7.61914V19.0087Z" fill="white"/>
</g>
<defs>
<clipPath id="clip0_1258_666">
<rect width="37.8734" height="26.6298" fill="white" transform="translate(0.126953 0.0263672)"/>
</clipPath>
</defs>
</svg>
